<?xml version="1.0" encoding="UTF-8" standalone="no"?>
<!-- Created with Inkscape (http://www.inkscape.org/) -->

<svg
   xmlns:dc="http://purl.org/dc/elements/1.1/"
   xmlns:cc="http://creativecommons.org/ns#"
   xmlns:rdf="http://www.w3.org/1999/02/22-rdf-syntax-ns#"
   xmlns:svg="http://www.w3.org/2000/svg"
   xmlns="http://www.w3.org/2000/svg"
   xmlns:sodipodi="http://sodipodi.sourceforge.net/DTD/sodipodi-0.dtd"
   xmlns:inkscape="http://www.inkscape.org/namespaces/inkscape"
   width="596"
   height="574"
   viewBox="0 0 157.69166 151.87084"
   version="1.1"
   id="svg8"
   inkscape:version="0.92.4 (5da689c313, 2019-01-14)"
   sodipodi:docname="capa.svg">
  <defs
     id="defs2" />
  <sodipodi:namedview
     id="base"
     pagecolor="#ffffff"
     bordercolor="#666666"
     borderopacity="1.0"
     inkscape:pageopacity="0.0"
     inkscape:pageshadow="2"
     inkscape:zoom="0.7"
     inkscape:cx="392.65522"
     inkscape:cy="249.82158"
     inkscape:document-units="mm"
     inkscape:current-layer="layer1"
     showgrid="false"
     units="px"
     inkscape:window-width="760"
     inkscape:window-height="403"
     inkscape:window-x="156"
     inkscape:window-y="156"
     inkscape:window-maximized="0" />
  <metadata
     id="metadata5">
    <rdf:RDF>
      <cc:Work
         rdf:about="">
        <dc:format>image/svg+xml</dc:format>
        <dc:type
           rdf:resource="http://purl.org/dc/dcmitype/StillImage" />
        <dc:title></dc:title>
      </cc:Work>
    </rdf:RDF>
  </metadata>
  <g
     inkscape:label="Camada 1"
     inkscape:groupmode="layer"
     id="layer1"
     transform="translate(0,-145.12914)"
     style="display:inline">
    <path
       style="fill:#00a82d;fill-opacity:0.89447237;stroke-width:0.17077786"
       d="m 148.65135,237.82253 c -2.99506,-1.16652 -18.05606,-7.95228 -38.04112,-17.13951 l -17.180126,-7.89777 -5.11757,-4.97622 c -4.595322,-4.46839 -5.149718,-4.95649 -5.432525,-4.78274 -0.173224,0.10642 -0.9292,0.54169 -1.67996,0.96729 -1.845518,1.04622 -4.621616,2.89602 -6.197814,4.12981 -1.506703,1.17941 -2.158158,1.37007 -3.198928,0.9362 -0.820956,-0.34224 -1.236354,-1.23573 -0.959001,-2.06274 0.344124,-1.02613 3.915372,-3.70119 9.046009,-6.77592 1.610611,-0.96523 3.049614,-1.79868 3.197774,-1.85213 0.273557,-0.099 2.553205,0.10984 12.354005,1.13035 l 5.474176,0.57001 9.53879,4.35166 c 5.24622,2.39366 9.60227,4.32902 9.67983,4.30137 0.0775,-0.0277 0.0494,-0.44261 -0.0625,-0.92209 -0.11198,-0.47948 -3.23086,-9.05764 -6.93083,-19.06256 l -6.72717,-18.19077 -0.82013,-0.19905 c -6.555326,-1.59099 -19.527346,0.23969 -28.235263,3.9847 -7.982646,3.4331 -15.212339,8.23917 -18.131273,12.05313 l -0.921706,1.20432 1.755543,4.72924 c 0.965732,2.60102 1.842927,5.1808 1.949389,5.73279 0.220583,1.14373 -0.07748,2.02775 -0.830938,2.46443 -0.572542,0.33184 -1.621455,0.14153 -2.09508,-0.38011 -0.209411,-0.23064 -1.145032,-2.44378 -2.44468,-5.78272 -1.432502,-3.6802 -2.180201,-5.43486 -2.339331,-5.48969 -0.128643,-0.0442 -1.148886,-0.2043 -2.267203,-0.35552 -8.933317,-1.20793 -21.877314,1.58593 -31.952917,6.89675 -3.800977,2.00349 -7.135694,4.23362 -9.656216,6.45772 -1.3325402,1.17582 -1.8344592,1.70072 -3.4494582,3.60749 l -0.413993,0.48878 11.1110172,29.91217 c 6.111162,16.45167 11.153861,29.86016 11.206017,29.79665 0.05215,-0.0635 0.579942,-0.58883 1.172879,-1.16741 5.065346,-4.94256 12.308729,-9.19671 20.875078,-12.26025 8.101406,-2.89726 16.403306,-4.20842 23.673573,-3.73882 l 2.06935,0.13365 -6.971483,-19.11971 c -3.834353,-10.51583 -7.100209,-19.64044 -7.25751,-20.27692 l -0.286006,-1.15722 0.571298,-0.45443 c 0.520775,-0.41424 0.648655,-0.4493 1.446172,-0.39656 0.716644,0.0474 0.952311,0.15511 1.303005,0.59556 0.328673,0.41279 2.125751,5.06138 7.736582,20.01264 4.019602,10.71123 7.328938,19.46765 7.353988,19.45872 0.02506,-0.009 0.733407,-0.69925 1.574125,-1.53402 4.705955,-4.67264 11.954445,-8.9111 20.423331,-11.94227 6.65027,-2.38024 14.18456,-3.8382 20.14857,-3.89894 3.30177,-0.0336 4.31493,0.30953 4.80449,1.62729 0.29047,0.78192 -0.16129,1.76154 -0.94048,2.03939 -0.3034,0.1082 -2.14006,0.24115 -4.08145,0.29548 -5.95075,0.16651 -8.72697,0.64695 -15.26757,2.64217 -11.228216,3.4252 -19.153016,8.10258 -24.714764,14.58716 -1.933037,2.25376 -2.313979,2.45805 -3.806283,2.04126 -4.120066,-1.15078 -12.345305,-1.0106 -18.052758,0.30763 -2.967817,0.68547 -14.613529,4.90102 -17.053977,6.17326 -3.780317,1.97072 -8.319539,5.26237 -10.945072,7.93692 -0.436408,0.44457 -1.474661,1.55083 -2.307182,2.45835 -0.832524,0.90753 -1.634174,1.69303 -1.781439,1.74555 -0.147295,0.0524 -0.571684,-0.0235 -0.943137,-0.16892 l -0.675428,-0.26436 -1.486806,-3.59668 C 24.641513,265.7682 19.057101,250.92691 13.049447,234.76573 l -10.9230922,-29.38394 1.13271,-1.51541 c 1.421413,-1.90166 2.223124,-2.78916 3.868642,-4.28264 2.781043,-2.5241 6.6183052,-5.23336 10.4001142,-7.34288 6.082288,-3.39276 16.69177,-6.73347 24.245988,-7.63459 3.690814,-0.44025 6.535279,-0.42754 10.713944,0.0479 l 2.637027,0.30004 1.477679,-1.60295 c 2.933393,-3.18211 7.945707,-6.97222 12.861377,-9.72528 1.956971,-1.096 12.454923,-5.0176 16.118958,-6.02136 4.30621,-1.17967 8.97886,-1.79131 13.30715,-1.74184 2.831426,0.0324 7.740126,0.6142 9.123126,1.0814 l 1.25976,0.42556 8.23973,22.05427 8.23974,22.05426 14.01945,6.42747 c 14.09735,6.46314 16.55981,7.68448 16.80064,8.33275 0.0719,0.19357 -0.0335,0.84275 -0.2342,1.44263 -0.80205,2.39717 -4.16662,9.16313 -5.23143,10.52019 l -0.34732,0.44263 z m -20.00759,-15.93756 c -23.22155,-10.6449 -26.07429,-12.01703 -26.31144,-12.65543 -0.5631,-1.51574 1.88951,-0.51994 28.23434,11.46354 11.18956,5.08979 20.40906,9.22298 20.48776,9.18486 0.0787,-0.0381 0.33573,-0.539 0.57116,-1.11306 l 0.4281,-1.04369 -26.17812,-11.96003 -26.178076,-11.96003 -5.22449,-0.49132 c -2.87346,-0.27022 -5.24273,-0.45295 -5.26503,-0.40607 -0.05,0.10504 1.50583,1.695 4.78289,4.88771 l 2.50056,2.43623 26.243546,12.00081 26.24355,12.00081 0.59714,-1.23767 0.59714,-1.23769 z m -47.970525,38.57599 c -8.750465,-1.70867 -17.282904,-0.92658 -26.74088,2.45104 -8.159592,2.91338 -14.334916,6.92619 -18.578372,12.07062 -1.734112,2.1023 -2.173271,2.523 -2.906601,2.78449 -1.002037,0.35732 -2.094482,-0.63476 -2.035699,-1.84865 0.08458,-1.74652 3.687453,-5.83205 8.221452,-9.32283 4.786835,-3.68545 9.360844,-5.90391 17.232447,-8.35796 4.901244,-1.528 6.31217,-1.83128 10.355052,-2.22574 4.825568,-0.47085 8.601838,-0.39658 13.353794,0.26262 1.20998,0.16784 2.264408,0.2822 2.343168,0.25411 0.07877,-0.0281 0.400002,-0.41675 0.713874,-0.8637 1.816654,-2.58691 7.351304,-7.2896 11.835674,-10.05657 3.94338,-2.43316 5.569176,-3.18646 11.191216,-5.18527 5.46907,-1.94426 7.25833,-2.41183 11.34022,-2.96231 6.32256,-0.85269 12.98055,-0.41271 15.92677,1.05247 0.87496,0.4351 1.08005,0.61915 1.27511,1.14425 0.19221,0.5174 0.16495,0.74642 -0.15751,1.32307 -0.62871,1.12431 -1.1833,1.1891 -4.49378,0.52501 -2.96508,-0.59481 -5.81682,-0.70546 -9.67386,-0.37533 -7.6691,0.65641 -16.23185,3.39339 -22.238236,7.10822 -5.55642,3.43651 -9.45803,6.76718 -12.81301,10.938 -0.6362,0.79091 -1.309265,1.45967 -1.558498,1.54855 -0.254604,0.0908 -1.342452,-0.0201 -2.592331,-0.26409 z m -51.897462,-8.79662 c -0.625618,-0.28582 -1.34581,-1.23078 -1.411455,-1.85199 -0.02569,-0.24345 0.07896,-0.64122 0.232642,-0.88394 0.718906,-1.13546 5.482402,-4.49723 9.871627,-6.96672 l 2.733586,-1.538 5.544151,-1.8803 c 7.753234,-2.62951 10.72269,-3.29627 15.692713,-3.52362 4.2551,-0.19461 4.926334,-0.0354 5.417002,1.28542 0.262104,0.70554 0.27087,0.95001 0.05064,1.41272 -0.241615,0.50764 -0.350486,0.579 -1.174138,0.76971 -0.499299,0.11562 -1.822948,0.2596 -2.941422,0.31996 -5.8518,0.31586 -7.832537,0.71109 -14.067773,2.80698 -7.974966,2.6807 -11.05189,4.24205 -16.424715,8.33449 -1.205748,0.91842 -2.372975,1.73429 -2.593848,1.81306 -0.220866,0.0788 -0.63892,0.0348 -0.929012,-0.0978 z m -4.26257,-11.80923 c -1.353099,-0.48458 -1.789556,-1.81176 -0.976373,-2.96895 1.105403,-1.57302 7.309869,-5.77458 11.259784,-7.62492 2.042396,-0.95678 9.0339,-3.44633 12.057215,-4.29355 4.070612,-1.14048 6.311985,-1.50206 10.725785,-1.73028 2.659647,-0.13753 3.953147,-0.0454 4.358779,0.3105 0.41198,0.36146 0.717518,1.56472 0.561918,2.21293 -0.202681,0.84441 -0.638401,0.97596 -4.286144,1.29392 -6.594443,0.57482 -10.367072,1.32748 -15.067199,3.00599 -6.036807,2.15641 -10.147421,4.34445 -15.253118,8.12123 -2.647401,1.95834 -2.620724,1.94513 -3.3807,1.67296 z m -4.587915,-11.82973 c -0.962127,-0.47594 -1.397328,-1.55009 -1.013252,-2.50104 0.33532,-0.83024 2.625053,-2.68534 6.185525,-5.01138 3.937615,-2.57244 4.205601,-2.69637 11.278306,-5.21591 7.324664,-2.60893 9.332148,-3.13965 13.597332,-3.59241 4.287849,-0.45518 7.019658,-0.41885 7.61242,0.10122 0.398847,0.34994 0.700965,1.56328 0.547964,2.20068 -0.200873,0.83687 -0.651421,0.97973 -3.959877,1.25561 -7.344324,0.61244 -11.040278,1.40351 -16.754058,3.58589 -6.008058,2.2948 -9.137641,4.01576 -14.229541,7.8248 -1.874016,1.40188 -2.57661,1.69296 -3.264819,1.35253 z m -4.501309,-11.83904 c -1.149949,-0.64841 -1.347834,-1.97294 -0.458867,-3.07146 0.844759,-1.04389 5.547784,-4.36471 9.046577,-6.38781 1.318905,-0.76263 2.358181,-1.17561 8.159503,-3.24233 7.147625,-2.54581 8.910643,-3.04359 12.381447,-3.49226 2.536078,-0.32785 7.374074,-0.48868 8.059771,-0.26795 1.003116,0.3229 1.565364,2.03153 0.964104,2.92984 -0.370249,0.55318 -0.07416,0.50077 -6.224368,1.10184 -5.764467,0.5634 -7.553315,0.96341 -12.99102,2.90507 -6.841356,2.44331 -9.861901,4.00329 -14.647992,7.56731 -2.98828,2.22528 -3.44499,2.43374 -4.289155,1.95775 z m 88.391151,-31.24551 c -0.51694,0.0437 -1.79274,0.10398 -2.83509,0.13393 -2.269166,0.0652 -5.224796,0.43203 -7.548616,0.93688 -2.32562,0.50525 -13.643646,4.53791 -15.565973,5.54624 -1.733889,0.90947 -4.012689,2.3772 -6.068891,3.90884 -2.502687,1.8642 -2.908214,2.08588 -3.684559,2.01418 -0.364225,-0.0337 -0.856351,-0.23641 -1.093608,-0.45062 -0.474458,-0.42828 -0.733782,-1.32886 -0.538714,-1.87089 0.391587,-1.08813 4.663959,-4.19053 9.875951,-7.17148 1.726167,-0.98728 2.135523,-1.14785 8.172984,-3.20603 8.34644,-2.84531 11.02937,-3.4473 16.034766,-3.59782 4.57802,-0.13767 5.93265,0.40686 5.68551,2.28546 -0.12299,0.93485 -0.77881,1.33132 -2.43375,1.47127 z"
       id="path5080"
       inkscape:connector-curvature="0"
       inkscape:export-filename="C:\Users\pc-thiago\Documents\Dev-Projects\my-simple-notes\frontend\src\assets\cover.png"
       inkscape:export-xdpi="96"
       inkscape:export-ydpi="96" />
  </g>
</svg>
