<?xml version="1.0" encoding="UTF-8" standalone="no"?>
<!-- Created with Inkscape (http://www.inkscape.org/) -->

<svg
   xmlns:dc="http://purl.org/dc/elements/1.1/"
   xmlns:cc="http://creativecommons.org/ns#"
   xmlns:rdf="http://www.w3.org/1999/02/22-rdf-syntax-ns#"
   xmlns:svg="http://www.w3.org/2000/svg"
   xmlns="http://www.w3.org/2000/svg"
   xmlns:sodipodi="http://sodipodi.sourceforge.net/DTD/sodipodi-0.dtd"
   xmlns:inkscape="http://www.inkscape.org/namespaces/inkscape"
   version="1.1"
   id="svg4518"
   width="1280"
   height="640"
   viewBox="0 0 1280 640"
   sodipodi:docname="capa-git.svg"
   inkscape:export-filename="C:\Users\pc-thiago\Documents\Dev-Projects\my-simple-notes\project\Images\capa-git.png"
   inkscape:export-xdpi="96"
   inkscape:export-ydpi="96"
   inkscape:version="0.92.4 (5da689c313, 2019-01-14)">
  <metadata
     id="metadata4524">
    <rdf:RDF>
      <cc:Work
         rdf:about="">
        <dc:format>image/svg+xml</dc:format>
        <dc:type
           rdf:resource="http://purl.org/dc/dcmitype/StillImage" />
        <dc:title></dc:title>
      </cc:Work>
    </rdf:RDF>
  </metadata>
  <defs
     id="defs4522" />
  <sodipodi:namedview
     pagecolor="#ffffff"
     bordercolor="#666666"
     borderopacity="1"
     objecttolerance="10"
     gridtolerance="10"
     guidetolerance="10"
     inkscape:pageopacity="0"
     inkscape:pageshadow="2"
     inkscape:window-width="2560"
     inkscape:window-height="1017"
     id="namedview4520"
     showgrid="false"
     inkscape:zoom="0.6640625"
     inkscape:cx="755.14165"
     inkscape:cy="239.08251"
     inkscape:window-x="-8"
     inkscape:window-y="-8"
     inkscape:window-maximized="1"
     inkscape:current-layer="svg4518" />
  <g
     id="layer1"
     transform="matrix(5.4903151,1.7809105,-1.5969823,4.9232885,-80.531237,-0.73322759)">
    <path
       id="Logo"
       class="shp0"
       d="m 72.307239,5.6531546 1.584595,2.0614409 -4.868191,-3.283838 1.794927,0.2501953 2.28932,-3.5546333 -4.381737,2.6047459 0.26198,-4.9508257 -2.13413,3.5825262 2.043308,2.380156 -5.676459,-3.6710712 2.776493,0.7495022 2.829687,-5.1744955 -1.430162,-2.1443205 3.716149,2.4537129 -0.507641,4.3854837 4.187776,-2.25124411 3.186101,2.23066031 -2.240805,-0.43772244 z m 6.138615,-1.3456551 2.967528,2.3980961 -3.562642,5.0313274 c -0.299418,0.423942 -0.624019,0.774882 -0.978977,1.055774 -0.351296,0.280109 -0.728753,0.473979 -1.129358,0.586709 -0.388182,0.108161 -0.802666,0.120539 -1.240552,0.03271 -0.430447,-0.07987 -0.874896,-0.269625 -1.332566,-0.565609 -0.25327,-0.163794 -0.486565,-0.368237 -0.697652,-0.61188 -0.211084,-0.243646 -0.378408,-0.506252 -0.500516,-0.790031 -0.108922,-0.284704 -0.162174,-0.57752 -0.157542,-0.877013 0.0061,-0.301715 0.100346,-0.593648 0.282822,-0.875805 0.142245,-0.2199486 0.327483,-0.3553773 0.557989,-0.4048126 0.231137,-0.055329 0.457072,-0.010043 0.677023,0.1322036 0.184398,0.1192538 0.297603,0.2901433 0.333719,0.5120087 0.03755,0.2196433 -0.0015,0.4212743 -0.116415,0.5990113 -0.07471,0.115529 -0.182905,0.199955 -0.321647,0.248868 -0.132076,0.05323 -0.263931,0.07193 -0.391854,0.05537 0.01887,0.248526 0.10138,0.481486 0.247519,0.698884 0.146927,0.221057 0.321802,0.394019 0.523977,0.52477 0.299932,0.193972 0.588729,0.273609 0.866388,0.238915 0.280666,-0.0296 0.54499,-0.126486 0.790084,-0.286223 0.244313,-0.163392 0.467574,-0.362457 0.670446,-0.603064 0.213218,-0.237068 0.403028,-0.467219 0.567983,-0.688235 0.167091,-0.229088 0.32097,-0.457268 0.467526,-0.683882 C 77.125284,9.8088788 77.28353,9.5835238 77.444043,9.3596342 77.128447,9.25321 76.834157,9.1479627 76.561954,9.0475463 76.302155,8.9425522 76.030857,8.8017537 75.753143,8.6221509 75.470987,8.4396753 75.219268,8.2296174 74.99956,7.9993051 74.78795,7.7710747 74.625996,7.5245463 74.521,7.2581346 74.419017,6.9968229 74.382104,6.7177258 74.408823,6.4230635 74.433317,6.126963 74.547972,5.8230017 74.749127,5.5119624 74.8066,5.4230944 74.896848,5.3176123 75.019128,5.1918815 75.150914,5.0659988 75.287841,4.9371378 75.42985,4.8052622 75.577114,4.6799365 75.719222,4.5575766 75.859277,4.4433431 75.999358,4.3291258 76.105281,4.243233 76.176343,4.182058 l -0.353191,-2.1725358 2.313929,2.9458866 c -0.09799,0.078417 -0.23882,0.1890009 -0.422507,0.3317351 -0.177027,0.1470397 -0.36201,0.3015378 -0.558627,0.464267 -0.190845,0.153858 -0.367758,0.3104252 -0.533668,0.4646549 -0.16307,0.1497652 -0.273714,0.2672649 -0.32975,0.3539111 -0.09339,0.1444108 -0.138336,0.2917977 -0.136969,0.4407751 0.0036,0.1504164 0.03418,0.2930844 0.09406,0.4294858 0.06433,0.1392786 0.147594,0.2687515 0.253465,0.3876358 0.114621,0.1150948 0.234855,0.2117519 0.361499,0.2936546 0.15107,0.0977 0.328549,0.1935676 0.531623,0.283944 0.209746,0.09468 0.406548,0.1557889 0.594852,0.1861932 l 1.41356,-2.1516751 z M 88.695816,14.972675 c -0.22127,0.342143 -0.499148,0.572056 -0.830618,0.694836 -0.329394,0.114671 -0.678133,0.156963 -1.042573,0.126083 -0.366666,-0.03232 -0.728899,-0.115337 -1.093366,-0.253366 -0.359369,-0.141033 -0.6772,-0.302468 -0.954905,-0.482065 -0.346587,-0.224144 -0.664579,-0.502262 -0.950291,-0.835136 -0.274746,-0.335229 -0.489652,-0.694778 -0.641058,-1.079429 l -1.244567,0.745371 5.339575,3.563479 1.252338,12.027204 3.842447,-6.072932 -3.862713,-5.545031 11.661145,7.235838 -5.655897,-0.721112 -9.037863,13.375692 -2.328834,-17.125237 -4.658182,7.675406 4.744526,6.36424 -13.201798,-8.619769 6.310074,0.951972 6.238667,-9.646651 -3.310298,-5.244493 2.548307,1.701604 2.179546,-2.746518 c -0.09253,0.308815 -0.13745,0.616917 -0.130973,0.923594 0.01602,0.306546 0.07292,0.598574 0.172174,0.873872 0.10002,0.278948 0.24304,0.535289 0.425372,0.769791 0.192669,0.238036 0.424519,0.444694 0.695566,0.619985 0.09776,0.06322 0.219029,0.129051 0.362389,0.199709 0.155772,0.06608 0.309059,0.111652 0.464301,0.139575 0.161119,0.02858 0.314527,0.03011 0.457212,-4.99e-4 0.142676,-0.03061 0.253864,-0.109953 0.337199,-0.238811 0.103451,-0.159963 0.128736,-0.345271 0.07447,-0.553663 -0.04761,-0.204092 -0.136249,-0.403208 -0.263051,-0.601797 -0.121696,-0.201589 -0.263777,-0.391154 -0.421805,-0.565825 -0.156581,-0.176886 -0.285451,-0.313795 -0.386609,-0.410725 -0.20533,-0.198957 -0.421382,-0.430062 -0.64737,-0.689646 -0.22455,-0.26181 -0.415523,-0.536554 -0.5737,-0.827906 -0.148637,-0.291483 -0.235734,-0.590432 -0.267172,-0.8974975 -0.02713,-0.3137303 0.05447,-0.6201641 0.24988,-0.9223169 0.224144,-0.3465864 0.493137,-0.5822435 0.804746,-0.7084167 0.315928,-0.1328325 0.642449,-0.189494 0.980368,-0.1663119 0.346016,0.025266 0.68695,0.1071132 1.024231,0.2433159 0.343956,0.1405208 0.660344,0.3041697 0.949167,0.4909571 0.417684,0.2701238 0.75932,0.5603885 1.024911,0.8707896 0.267814,0.311842 0.516697,0.6870624 0.750301,1.1248714 l 1.552621,-0.495731 -2.168464,2.646554 c 0.005,-0.324452 -0.02525,-0.652815 -0.09,-0.981429 -0.06031,-0.32574 -0.156436,-0.639978 -0.293447,-0.939697 C 88.952751,10.658231 88.781511,10.377336 88.570942,10.118271 88.371351,9.8568529 88.132694,9.63634 87.85498,9.4567371 87.75723,9.3935207 87.631639,9.3343537 87.479655,9.2770303 87.338651,9.2173514 87.188372,9.1768742 87.02882,9.1556168 c -0.156677,-0.025704 -0.305635,-0.024359 -0.448319,0.00625 -0.13606,0.034894 -0.24498,0.115698 -0.328316,0.2445567 -0.07759,0.1199722 -0.09625,0.2559979 -0.05452,0.4058722 0.05125,0.1497349 0.128907,0.2976283 0.229302,0.4444803 0.111367,0.14449 0.227032,0.282316 0.348455,0.411256 0.125083,0.128161 0.223367,0.229534 0.298525,0.30334 0.222581,0.225869 0.472224,0.497602 0.751148,0.816629 0.278925,0.319026 0.516295,0.658443 0.718007,1.01891 0.201704,0.360464 0.330111,0.72709 0.38665,1.097654 0.05954,0.375657 -0.01695,0.732658 -0.233907,1.068136 z m 5.969356,-2.589451 c -0.08334,0.128859 -0.187542,0.231617 -0.313395,0.314074 -0.118528,0.08089 -0.248362,0.135567 -0.391046,0.166177 -0.135372,0.02904 -0.276223,0.03247 -0.424805,0.0089 -0.13903,-0.02375 -0.273376,-0.07912 -0.400011,-0.161017 -0.126635,-0.0819 -0.232243,-0.181707 -0.31093,-0.298762 -0.07804,-0.122949 -0.132698,-0.252818 -0.166176,-0.391053 -0.0239,-0.138345 -0.02738,-0.279235 -0.0089,-0.424803 0.02803,-0.145723 0.08345,-0.280032 0.166783,-0.408891 0.0819,-0.126637 0.180302,-0.229997 0.298746,-0.310942 0.123725,-0.07438 0.252164,-0.126807 0.385308,-0.157285 0.142676,-0.03061 0.283539,-0.03404 0.424796,-0.0089 0.141912,0.01931 0.279122,0.07024 0.405765,0.152139 0.126635,0.0819 0.229362,0.186143 0.305184,0.307645 0.08535,0.121367 0.140006,0.251243 0.166169,0.391048 0.03348,0.138244 0.03836,0.276881 0.01461,0.415917 -0.0207,0.144157 -0.07024,0.279123 -0.152135,0.405759 z m -3.7099,5.049527 0.745234,1.761232 -3.843448,-2.583307 2.018704,0.03571 1.743587,-2.95914 -1.153077,-1.851692 3.183707,2.058963 -0.196714,0.260346 3.500579,1.52027 -0.3842,0.501452 c 0.317787,7.07e-4 0.613504,0.05016 0.88427,0.1528 0.277439,0.106959 0.536842,0.236908 0.779012,0.393524 0.248828,0.160922 0.440177,0.357137 0.568151,0.587999 0.134513,0.225633 0.23271,0.478194 0.296801,0.759113 0.341705,0.03193 0.688903,0.08947 1.045262,0.171839 0.35857,0.08381 0.6841,0.218707 0.97959,0.409806 0.25327,0.163795 0.44592,0.348253 0.58082,0.548928 0.13934,0.203547 0.21871,0.421876 0.24463,0.649755 0.0266,0.222002 0.004,0.456421 -0.0688,0.695958 -0.0642,0.23575 -0.17315,0.477242 -0.3312,0.72163 -0.0704,0.108864 -0.16551,0.23641 -0.28389,0.380417 -0.10879,0.143908 -0.22203,0.284937 -0.3361,0.422279 -0.13432,0.158902 -0.27069,0.325936 -0.4091,0.501101 l 0.83899,1.538286 -3.465257,-2.461613 1.526905,0.187142 c 0.127466,-0.17279 0.249876,-0.342549 0.370018,-0.513773 0.12603,-0.170569 0.249134,-0.346183 0.365514,-0.526141 0.0963,-0.148855 0.16912,-0.290792 0.22167,-0.420657 0.0568,-0.136585 0.0807,-0.266044 0.0747,-0.383398 -0.002,-0.124009 -0.0408,-0.243819 -0.12174,-0.362315 -0.0742,-0.114187 -0.19319,-0.222615 -0.355366,-0.3275 -0.137753,-0.08909 -0.282277,-0.138443 -0.43503,-0.145852 -0.149096,-0.0082 -0.29923,0.01444 -0.446742,0.06714 -0.138792,0.04888 -0.274242,0.121981 -0.402794,0.218446 -0.118995,0.09634 -0.223892,0.204958 -0.319142,0.32296 -0.186936,0.225707 -0.369422,0.454293 -0.554781,0.687321 -0.183175,0.23444 -0.367098,0.465247 -0.545879,0.693077 l 0.78236,1.318906 -3.783029,-2.408745 2.02781,0.426013 1.010085,-1.56186 c 0.0977,-0.151076 0.164394,-0.312756 0.201593,-0.487208 0.04234,-0.177428 0.04722,-0.350723 0.01699,-0.518366 -0.03492,-0.136019 -0.09819,-0.252556 -0.194905,-0.346613 -0.08575,-0.09642 -0.184546,-0.182372 -0.300081,-0.25709 C 96.873242,17.207882 96.68937,17.12678 96.47493,17.06372 96.268588,17.00274 96.074288,17.01573 95.894246,17.1041 l -1.280183,1.560484 0.736908,1.374586 -3.577335,-2.288318 1.843939,0.344911 1.093546,-2.260955 c -0.138675,-0.15585 -0.298918,-0.331956 -0.481512,-0.531967 -0.178274,-0.206671 -0.349111,-0.40538 -0.509618,-0.600559 -0.11789,-0.139264 -0.238018,-0.279967 -0.36114,-0.425763 z m 16.894058,8.991028 c -0.20978,0.32437 -0.46542,0.568661 -0.76842,0.735065 -0.2971,0.167066 -0.61643,0.26619 -0.95512,0.292925 -0.33202,0.03105 -0.6715,5.55e-4 -1.02067,-0.09292 -0.34329,-0.09282 -0.6645,-0.23439 -0.96665,-0.429795 -0.24884,-0.160928 -0.48617,-0.339626 -0.71345,-0.533867 -0.21487,-0.198828 -0.41236,-0.414774 -0.58738,-0.650852 l -1.06816,1.71021 1.32386,1.889669 -5.082276,-3.006372 2.495466,0.385004 c 0.12829,-0.222674 0.26497,-0.468276 0.41536,-0.739674 0.16134,-0.273773 0.32615,-0.557899 0.49226,-0.85379 0.16468,-0.29367 0.33231,-0.591728 0.50129,-0.892063 0.16899,-0.300334 0.33593,-0.592538 0.4935,-0.875044 0.36809,-0.656814 0.74253,-1.328425 1.12927,-2.014137 l -1.60183,-2.034776 3.80174,1.907237 -0.54887,0.848693 c 0.48573,0.150283 0.93633,0.359771 1.35401,0.629889 0.31104,0.201157 0.59765,0.440083 0.85539,0.713898 0.26219,0.276696 0.4682,0.576921 0.61214,0.900028 0.14839,0.325984 0.21851,0.67067 0.20592,1.031187 -0.01,0.356075 -0.13167,0.715179 -0.36731,1.079538 z m -1.27294,-0.920906 c 0.14656,-0.226614 0.21763,-0.448476 0.22185,-0.669467 0.003,-0.218736 -0.0419,-0.427276 -0.135,-0.629265 -0.088,-0.204998 -0.21609,-0.391822 -0.38365,-0.566356 -0.16089,-0.170219 -0.33759,-0.316003 -0.52865,-0.439569 -0.15552,-0.100578 -0.32398,-0.181163 -0.50759,-0.243186 -0.17184,-0.06072 -0.35008,-0.10667 -0.52805,-0.133543 l -1.38079,2.135061 c 0.11346,0.189964 0.26129,0.37064 0.43761,0.541386 0.17632,0.170737 0.35523,0.317954 0.54185,0.438647 0.20218,0.13075 0.40527,0.221124 0.61147,0.272559 0.21496,0.04764 0.41906,0.0536 0.61741,0.01488 0.20136,-0.03363 0.38819,-0.108156 0.56417,-0.224361 0.17806,-0.124319 0.33431,-0.287944 0.46937,-0.496785 z m 2.45201,4.427894 0.83513,1.734296 -4.04424,-2.404376 2.09619,0.01335 3.95632,-6.746056 -1.55101,-2.074378 3.69901,2.329191 z m 6.94646,2.696375 c -0.0259,0.03999 -0.0557,0.08058 -0.0879,0.116438 -0.0259,0.03999 -0.0517,0.07998 -0.0776,0.119972 l -3.5785,-2.213448 c -0.14426,0.388796 -0.13702,0.752684 0.0247,1.087287 0.16094,0.330948 0.40993,0.608557 0.74541,0.825516 0.16218,0.10489 0.33377,0.200104 0.51842,0.284866 0.181,0.08554 0.36983,0.154098 0.56507,0.207891 0.19666,0.05156 0.39306,0.08405 0.5892,0.09746 0.20045,0.0067 0.39763,-0.01068 0.58787,-0.05149 -0.22102,0.200514 -0.46706,0.347035 -0.7374,0.433732 -0.26811,0.08814 -0.5472,0.125052 -0.83507,0.112184 -0.2812,-0.0086 -0.56228,-0.06115 -0.84833,-0.154766 -0.27286,-0.09454 -0.52927,-0.2194 -0.76699,-0.373137 -0.32436,-0.209775 -0.59582,-0.467255 -0.8166,-0.773885 -0.21411,-0.302317 -0.36615,-0.627513 -0.45535,-0.971934 -0.0825,-0.340111 -0.097,-0.692907 -0.0397,-1.059189 0.0573,-0.366275 0.19257,-0.716761 0.40953,-1.052239 0.22845,-0.353252 0.50866,-0.625769 0.8413,-0.823414 0.3312,-0.195428 0.68032,-0.31625 1.05023,-0.366904 0.36913,-0.05431 0.74807,-0.03611 1.13173,0.05761 0.38288,0.09007 0.7454,0.245743 1.08753,0.467008 0.3577,0.231329 0.63675,0.506317 0.83492,0.823538 0.2026,0.320085 0.32918,0.660319 0.38414,1.023561 0.0528,0.361807 0.0308,0.732 -0.0631,1.106124 -0.0851,0.370337 -0.23934,0.730623 -0.46348,1.077209 z m -3.23249,-2.767958 2.18984,1.466617 c 0.0895,-0.162688 0.15604,-0.333911 0.19614,-0.512789 0.0423,-0.177429 0.0523,-0.353728 0.0316,-0.521502 -0.0215,-0.171435 -0.0787,-0.33136 -0.17182,-0.479778 -0.0807,-0.152994 -0.21018,-0.284017 -0.38347,-0.396092 -0.17329,-0.112069 -0.34449,-0.178672 -0.51279,-0.196138 -0.16687,-0.0197 -0.32955,-0.002 -0.49026,0.0516 -0.15418,0.04838 -0.30573,0.126823 -0.45689,0.233873 -0.14241,0.103262 -0.27722,0.224034 -0.40238,0.354208 z m -7.24121,12.643909 c -0.58048,0.89757 -1.29993,1.513058 -2.15912,1.842812 -0.8409,0.325826 -1.73517,0.456448 -2.69233,0.391995 -0.93299,-0.06772 -1.869407,-0.276306 -2.807034,-0.624311 -0.931232,-0.362774 -1.765652,-0.782674 -2.507704,-1.262573 -0.728717,-0.471275 -1.431852,-1.055193 -2.107182,-1.750317 -0.664227,-0.687944 -1.200927,-1.441507 -1.613779,-2.259918 -0.398081,-0.81201 -0.613229,-1.663258 -0.646896,-2.551536 -0.01394,-0.894424 0.261428,-1.778201 0.826099,-2.651333 0.614958,-0.95089 1.352435,-1.589377 2.211627,-1.919132 0.860636,-0.331971 1.752807,-0.454493 2.677176,-0.373439 0.93992,0.09111 1.871641,0.331318 2.796741,0.727937 0.939862,0.403016 1.801202,0.859233 2.581032,1.363558 0.71539,0.462657 1.39853,1.033646 2.04942,1.712966 0.66422,0.687939 1.18759,1.432884 1.57234,2.236269 0.4067,0.798679 0.61428,1.632429 0.62207,2.50712 0.0203,0.879654 -0.24641,1.750102 -0.80246,2.609902 z m -3.19562,-2.123384 c 0.30174,-0.466559 0.48939,-0.956479 0.56009,-1.46532 0.0826,-0.497996 0.0603,-0.994532 -0.0654,-1.482289 -0.11458,-0.480567 -0.32336,-0.927533 -0.62714,-1.344558 -0.30011,-0.417802 -0.68083,-0.774303 -1.13629,-1.068854 -0.46878,-0.303168 -0.98354,-0.535239 -1.545707,-0.694 -0.552116,-0.174309 -1.100681,-0.251795 -1.646478,-0.236114 -0.547235,0.0179 -1.06792,0.150653 -1.562699,0.404139 -0.486946,0.236496 -0.894146,0.612789 -1.221741,1.119339 -0.329032,0.508771 -0.550134,1.021172 -0.663298,1.53721 -0.101275,0.526877 -0.0971,1.036876 0.0089,1.530778 0.118499,0.49886 0.33056,0.970002 0.639046,1.408975 0.314881,0.424205 0.726704,0.800821 1.235479,1.129855 0.546536,0.353455 1.090442,0.623287 1.635374,0.808703 0.552114,0.17431 1.093882,0.237946 1.621648,0.191698 0.527756,-0.04625 1.023726,-0.213893 1.489366,-0.505131 0.47281,-0.302351 0.8996,-0.7479 1.27892,-1.334431 z m 13.94051,-2.671201 3.51513,2.827864 -1.36233,1.721623 c -0.60458,-0.463469 -1.20537,-0.918179 -1.80525,-1.359695 -0.59203,-0.458501 -1.18564,-0.924324 -1.78161,-1.401124 -0.90329,1.167741 -1.81037,2.326727 -2.71758,3.476175 -0.90944,1.148009 -1.82175,2.300461 -2.73981,3.461801 -0.0417,0.06443 -0.089,0.128365 -0.14424,0.183998 -0.055,0.0558 -0.10476,0.118156 -0.14643,0.182585 -0.11782,0.18218 -0.21996,0.38395 -0.30862,0.603897 -0.0778,0.20803 -0.1226,0.418558 -0.13208,0.632988 -0.002,0.203321 0.0364,0.401666 0.11108,0.598042 0.0988,0.193107 0.2575,0.361889 0.47745,0.504136 0.43101,0.278742 0.87192,0.425245 1.32273,0.439509 0.45943,9.4e-4 0.90303,-0.08084 1.32557,-0.25185 0.42333,-0.167359 0.82298,-0.400437 1.19467,-0.69257 0.38395,-0.30625 0.71696,-0.636001 1.0012,-0.987832 -0.2396,0.711548 -0.5541,1.368361 -0.9406,1.966 -0.3707,0.573201 -0.79944,1.036392 -1.28479,1.387357 -0.47673,0.33763 -0.98576,0.569294 -1.53219,0.698001 -0.53414,0.114595 -1.08895,0.114993 -1.66222,0.0026 -0.57328,-0.112371 -1.13429,-0.345997 -1.68083,-0.699457 -0.5732,-0.370696 -1.0113,-0.789518 -1.31587,-1.263771 -0.30235,-0.472813 -0.48762,-0.970747 -0.5544,-1.496021 -0.0462,-0.527755 0.009,-1.071611 0.17027,-1.632346 0.17208,-0.553556 0.43238,-1.09733 0.77721,-1.630539 0.0675,-0.104421 0.13075,-0.202176 0.18966,-0.293266 0.0589,-0.09109 0.12885,-0.184501 0.20965,-0.280341 0.92054,-1.194396 1.8229,-2.375335 2.70568,-3.540586 0.90107,-1.169175 1.80109,-2.361087 2.69719,-3.571291 -0.33601,-0.255116 -0.6698,-0.508793 -1.00503,-0.760245 -0.31183,-0.258393 -0.63399,-0.520306 -0.95916,-0.78731 l 1.07491,-1.491578 c 0.28189,0.163396 0.59866,0.30209 0.94888,0.418304 0.35022,0.116216 0.70435,0.197141 1.06096,0.245012 0.37137,0.05427 0.73189,0.06685 1.08298,0.03554 0.36666,-0.02125 0.7039,-0.09934 1.01172,-0.234265 0.29305,-0.141325 0.58793,-0.30983 0.88241,-0.506948 0.30559,-0.189934 0.60202,-0.404693 0.88708,-0.645714 0.2984,-0.232397 0.57248,-0.471064 0.82226,-0.715996 0.25921,-0.25459 0.48897,-0.512469 0.69236,-0.768497 l 1.5752,1.07228 z m 8.82652,19.112316 c -0.0589,0.09109 -0.12453,0.177835 -0.19671,0.260345 -0.0589,0.09109 -0.11782,0.182179 -0.17673,0.27327 l -8.04906,-4.981764 c -0.32829,0.877912 -0.30888,1.690797 0.0531,2.441661 0.36278,0.754521 0.92036,1.373492 1.67574,1.862014 0.36436,0.235635 0.75263,0.448926 1.1648,0.639864 0.41074,0.193162 0.83637,0.348686 1.27687,0.46657 0.44052,0.11789 0.88337,0.193179 1.32556,0.220774 0.45303,0.0157 0.89063,-0.02269 1.32233,-0.115306 -0.49787,0.453147 -1.0496,0.780081 -1.65964,0.97793 -0.60639,0.197061 -1.23488,0.282147 -1.88039,0.252249 -0.63218,-0.02128 -1.26569,-0.137945 -1.90562,-0.346989 -0.61877,-0.217416 -1.19508,-0.495601 -1.72829,-0.840438 -0.72872,-0.471275 -1.34156,-1.053517 -1.83552,-1.741629 -0.48286,-0.680929 -0.82473,-1.409326 -1.02563,-2.185186 -0.18612,-0.769458 -0.21702,-1.564568 -0.089,-2.386113 0.12577,-0.822979 0.43108,-1.611766 0.9196,-2.367148 0.51438,-0.795371 1.14354,-1.412536 1.89111,-1.852287 0.74535,-0.441186 1.53414,-0.715644 2.3619,-0.826257 0.83638,-0.123943 1.68756,-0.08077 2.54911,0.126659 0.86298,0.205202 1.67739,0.558595 2.4461,1.055735 0.80648,0.521567 1.43449,1.138824 1.87815,1.851119 0.45699,0.720919 0.74581,1.48748 0.86362,2.304131 0.11923,0.81443 0.0728,1.641439 -0.13857,2.484694 -0.19162,0.837109 -0.53848,1.646287 -1.04281,2.426107 z m -7.27306,-6.225521 4.92857,3.297673 c 0.20031,-0.368291 0.34765,-0.751943 0.44111,-1.154687 0.092,-0.40052 0.11519,-0.792011 0.0673,-1.175899 -0.0471,-0.380238 -0.17619,-0.740982 -0.38195,-1.075703 -0.18458,-0.34309 -0.47421,-0.640682 -0.86301,-0.892125 -0.39102,-0.252882 -0.7747,-0.400183 -1.15469,-0.441123 -0.37856,-0.04316 -0.74717,-0.0043 -1.1036,0.118128 -0.34416,0.108275 -0.6896,0.281887 -1.02967,0.525141 -0.31891,0.234887 -0.62121,0.502568 -0.90404,0.7986 z m 17.96309,13.501315 c -0.42099,0.650961 -0.91468,1.087904 -1.48329,1.309391 -0.57005,0.223714 -1.16183,0.31049 -1.7782,0.264772 -0.60632,-0.06127 -1.22207,-0.220017 -1.84947,-0.477674 -0.61878,-0.270989 -1.18882,-0.573477 -1.71092,-0.911129 -0.29772,-0.192538 -0.61804,-0.428051 -0.95654,-0.703686 -0.31798,-0.278113 -0.62303,-0.576228 -0.91515,-0.894334 -0.29434,-0.319546 -0.56686,-0.653336 -0.81979,-1.002815 -0.24326,-0.340072 -0.43451,-0.687475 -0.57663,-1.037761 l -2.7816,0.832113 4.47013,-5.581922 c -0.0918,0.624357 -0.10645,1.260844 -0.0438,1.909466 0.0737,0.655805 0.22716,1.29069 0.45806,1.903207 0.23235,0.610296 0.53968,1.177716 0.91979,1.700821 0.39095,0.511208 0.85859,0.942829 1.40513,1.296284 0.14441,0.09339 0.31089,0.19165 0.50027,0.298328 0.21275,0.09978 0.42511,0.170944 0.63562,0.215708 0.22385,0.05339 0.43384,0.06001 0.62552,0.01697 0.1939,-0.0416 0.35224,-0.159762 0.47868,-0.355272 0.14368,-0.222171 0.15747,-0.496838 0.0398,-0.831321 -0.10684,-0.346375 -0.27379,-0.687512 -0.50371,-1.018961 -0.21987,-0.347006 -0.45619,-0.663687 -0.71055,-0.957372 -0.2435,-0.305571 -0.42872,-0.535635 -0.54975,-0.689534 -0.35879,-0.414785 -0.73405,-0.906399 -1.12358,-1.473407 -0.3698,-0.573152 -0.68185,-1.162527 -0.93614,-1.76811 -0.23091,-0.612518 -0.35768,-1.23016 -0.3803,-1.852921 -0.0118,-0.634653 0.16618,-1.241125 0.53688,-1.814325 0.35345,-0.54654 0.79919,-0.948324 1.33788,-1.211229 0.55057,-0.252059 1.12626,-0.387049 1.7293,-0.403525 0.60943,-0.03125 1.21522,0.04544 1.81595,0.232284 0.62046,0.180699 1.17952,0.431968 1.67274,0.750945 0.78204,0.505758 1.42547,1.123534 1.93106,1.856983 0.52534,0.727308 0.90578,1.537359 1.14277,2.42794 l 2.72667,-1.560834 -4.24476,6.008103 c 0.0519,-0.596645 0.0445,-1.228424 -0.0206,-1.897561 -0.0565,-0.682467 -0.18169,-1.346364 -0.37484,-1.988028 -0.19537,-0.643101 -0.46783,-1.235229 -0.8188,-1.774149 -0.35176,-0.542572 -0.79314,-0.985564 -1.32858,-1.33184 -0.15552,-0.100578 -0.35062,-0.198399 -0.58533,-0.293466 -0.21275,-0.09978 -0.43464,-0.170814 -0.66711,-0.210871 -0.21913,-0.03144 -0.43983,-0.01662 -0.66431,0.04302 -0.19886,0.05415 -0.36805,0.184201 -0.50311,0.393041 -0.15949,0.246609 -0.20777,0.521025 -0.1434,0.821025 0.0777,0.308619 0.20163,0.618796 0.36818,0.931318 0.18993,0.305584 0.38705,0.600064 0.59279,0.881215 0.22769,0.276439 0.41499,0.498397 0.56269,0.669539 0.3682,0.458688 0.77915,0.982832 1.2284,1.569553 0.45146,0.588161 0.84088,1.199208 1.16678,1.835351 0.32957,0.635362 0.52508,1.288007 0.58875,1.959365 0.087,0.664425 -0.067,1.302123 -0.46355,1.915315 z"
       style="fill:#00a82d;fill-rule:evenodd;stroke-width:0.26458332"
       inkscape:connector-curvature="0" />
  </g>
  <g
     style="display:inline"
     transform="matrix(3.6845455,-0.84199371,0.84199371,3.6845455,393.08433,-457.66355)"
     id="layer1-8"
     inkscape:label="Camada 1">
    <path
       inkscape:export-ydpi="96"
       inkscape:export-xdpi="96"
       inkscape:export-filename="C:\Users\pc-thiago\Documents\Dev-Projects\my-simple-notes\frontend\src\assets\cover.png"
       inkscape:connector-curvature="0"
       id="path5080"
       d="m 135.10468,239.41626 c -2.99506,-1.16652 -18.05606,-7.95228 -38.041117,-17.13951 l -17.180126,-7.89777 -5.11757,-4.97622 c -4.595322,-4.46839 -5.149718,-4.95649 -5.432525,-4.78274 -0.173224,0.10642 -0.9292,0.54169 -1.67996,0.96729 -1.845518,1.04622 -4.621616,2.89602 -6.197814,4.12981 -1.506703,1.17941 -2.158158,1.37007 -3.198928,0.9362 -0.820956,-0.34224 -1.236354,-1.23573 -0.959001,-2.06274 0.344124,-1.02613 3.915372,-3.70119 9.046009,-6.77592 1.610611,-0.96523 3.049614,-1.79868 3.197774,-1.85213 0.273557,-0.099 2.553205,0.10984 12.354005,1.13035 l 5.474176,0.57001 9.53879,4.35166 c 5.246217,2.39366 9.602267,4.32902 9.679827,4.30137 0.0775,-0.0277 0.0494,-0.44261 -0.0625,-0.92209 -0.11198,-0.47948 -3.23086,-9.05764 -6.930827,-19.06256 l -6.72717,-18.19077 -0.82013,-0.19905 c -6.555326,-1.59099 -19.527346,0.23969 -28.235263,3.9847 -7.982646,3.4331 -15.212339,8.23917 -18.131273,12.05313 l -0.921706,1.20432 1.755543,4.72924 c 0.965732,2.60102 1.842927,5.1808 1.949389,5.73279 0.220583,1.14373 -0.07748,2.02775 -0.830938,2.46443 -0.572542,0.33184 -1.621455,0.14153 -2.09508,-0.38011 -0.209411,-0.23064 -1.145032,-2.44378 -2.44468,-5.78272 -1.432502,-3.6802 -2.180201,-5.43486 -2.339331,-5.48969 -0.128643,-0.0442 -1.148886,-0.2043 -2.267203,-0.35552 -8.933317,-1.20793 -21.877314,1.58593 -31.9529165,6.89675 -3.800977,2.00349 -7.13569401,4.23362 -9.656216,6.45772 -1.3325402,1.17582 -1.8344592,1.70072 -3.4494582,3.60749 l -0.413993,0.48878 11.1110172,29.91217 c 6.1111615,16.45167 11.1538605,29.86016 11.2060165,29.79665 0.05215,-0.0635 0.579942,-0.58883 1.172879,-1.16741 5.065346,-4.94256 12.308729,-9.19671 20.875078,-12.26025 8.101406,-2.89726 16.403306,-4.20842 23.673573,-3.73882 l 2.06935,0.13365 -6.971483,-19.11971 c -3.834353,-10.51583 -7.100209,-19.64044 -7.25751,-20.27692 l -0.286006,-1.15722 0.571298,-0.45443 c 0.520775,-0.41424 0.648655,-0.4493 1.446172,-0.39656 0.716644,0.0474 0.952311,0.15511 1.303005,0.59556 0.328673,0.41279 2.125751,5.06138 7.736582,20.01264 4.019602,10.71123 7.328938,19.46765 7.353988,19.45872 0.02506,-0.009 0.733407,-0.69925 1.574125,-1.53402 4.705955,-4.67264 11.954445,-8.9111 20.423331,-11.94227 6.65027,-2.38024 14.184557,-3.8382 20.148567,-3.89894 3.30177,-0.0336 4.31493,0.30953 4.80449,1.62729 0.29047,0.78192 -0.16129,1.76154 -0.94048,2.03939 -0.3034,0.1082 -2.14006,0.24115 -4.08145,0.29548 -5.95075,0.16651 -8.72697,0.64695 -15.267567,2.64217 -11.228216,3.4252 -19.153016,8.10258 -24.714764,14.58716 -1.933037,2.25376 -2.313979,2.45805 -3.806283,2.04126 -4.120066,-1.15078 -12.345305,-1.0106 -18.052758,0.30763 -2.967817,0.68547 -14.613529,4.90102 -17.053977,6.17326 -3.780317,1.97072 -8.319539,5.26237 -10.945072,7.93692 -0.436408,0.44457 -1.474661,1.55083 -2.307182,2.45835 -0.832524,0.90753 -1.634174,1.69303 -1.781439,1.74555 -0.147295,0.0524 -0.571684,-0.0235 -0.943137,-0.16892 l -0.675428,-0.26436 -1.486806,-3.59668 C 11.094846,267.36193 5.5104345,252.52064 -0.49721951,236.35946 l -10.92309249,-29.38394 1.13271,-1.51541 c 1.4214133,-1.90166 2.2231243,-2.78916 3.8686423,-4.28264 2.781043,-2.5241 6.61830519,-5.23336 10.4001142,-7.34288 6.0822875,-3.39276 16.6917695,-6.73347 24.2459875,-7.63459 3.690814,-0.44025 6.535279,-0.42754 10.713944,0.0479 l 2.637027,0.30004 1.477679,-1.60295 c 2.933393,-3.18211 7.945707,-6.97222 12.861377,-9.72528 1.956971,-1.096 12.454923,-5.0176 16.118958,-6.02136 4.30621,-1.17967 8.97886,-1.79131 13.30715,-1.74184 2.831426,0.0324 7.740126,0.6142 9.123126,1.0814 l 1.25976,0.42556 8.239727,22.05427 8.23974,22.05426 14.01945,6.42747 c 14.09735,6.46314 16.55981,7.68448 16.80064,8.33275 0.0719,0.19357 -0.0335,0.84275 -0.2342,1.44263 -0.80205,2.39717 -4.16662,9.16313 -5.23143,10.52019 l -0.34732,0.44263 z M 115.09709,223.4787 C 91.875543,212.8338 89.022803,211.46167 88.785653,210.82327 c -0.5631,-1.51574 1.88951,-0.51994 28.234337,11.46354 11.18956,5.08979 20.40906,9.22298 20.48776,9.18486 0.0787,-0.0381 0.33573,-0.539 0.57116,-1.11306 l 0.4281,-1.04369 -26.17812,-11.96003 -26.178073,-11.96003 -5.22449,-0.49132 c -2.87346,-0.27022 -5.24273,-0.45295 -5.26503,-0.40607 -0.05,0.10504 1.50583,1.695 4.78289,4.88771 l 2.50056,2.43623 26.243543,12.00081 26.24355,12.00081 0.59714,-1.23767 0.59714,-1.23769 z m -47.970522,38.57599 c -8.750465,-1.70867 -17.282904,-0.92658 -26.74088,2.45104 -8.159592,2.91338 -14.334916,6.92619 -18.578372,12.07062 -1.734112,2.1023 -2.173271,2.523 -2.906601,2.78449 -1.002037,0.35732 -2.094482,-0.63476 -2.035699,-1.84865 0.08458,-1.74652 3.687453,-5.83205 8.221452,-9.32283 4.786835,-3.68545 9.360844,-5.90391 17.232447,-8.35796 4.901244,-1.528 6.31217,-1.83128 10.355052,-2.22574 4.825568,-0.47085 8.601838,-0.39658 13.353794,0.26262 1.20998,0.16784 2.264408,0.2822 2.343168,0.25411 0.07877,-0.0281 0.400002,-0.41675 0.713874,-0.8637 1.816654,-2.58691 7.351304,-7.2896 11.835674,-10.05657 3.94338,-2.43316 5.569176,-3.18646 11.191216,-5.18527 5.46907,-1.94426 7.25833,-2.41183 11.340217,-2.96231 6.32256,-0.85269 12.98055,-0.41271 15.92677,1.05247 0.87496,0.4351 1.08005,0.61915 1.27511,1.14425 0.19221,0.5174 0.16495,0.74642 -0.15751,1.32307 -0.62871,1.12431 -1.1833,1.1891 -4.49378,0.52501 -2.96508,-0.59481 -5.81682,-0.70546 -9.67386,-0.37533 -7.669097,0.65641 -16.231847,3.39339 -22.238233,7.10822 -5.55642,3.43651 -9.45803,6.76718 -12.81301,10.938 -0.6362,0.79091 -1.309265,1.45967 -1.558498,1.54855 -0.254604,0.0908 -1.342452,-0.0201 -2.592331,-0.26409 z m -51.897462,-8.79662 c -0.625618,-0.28582 -1.34581,-1.23078 -1.411455,-1.85199 -0.02569,-0.24345 0.07896,-0.64122 0.232642,-0.88394 0.718906,-1.13546 5.482402,-4.49723 9.871627,-6.96672 l 2.733586,-1.538 5.544151,-1.8803 c 7.753234,-2.62951 10.72269,-3.29627 15.692713,-3.52362 4.2551,-0.19461 4.926334,-0.0354 5.417002,1.28542 0.262104,0.70554 0.27087,0.95001 0.05064,1.41272 -0.241615,0.50764 -0.350486,0.579 -1.174138,0.76971 -0.499299,0.11562 -1.822948,0.2596 -2.941422,0.31996 -5.8518,0.31586 -7.832537,0.71109 -14.067773,2.80698 -7.974966,2.6807 -11.05189,4.24205 -16.424715,8.33449 -1.205748,0.91842 -2.372975,1.73429 -2.593848,1.81306 -0.220866,0.0788 -0.63892,0.0348 -0.929012,-0.0978 z m -4.26257,-11.80923 c -1.3530985,-0.48458 -1.7895555,-1.81176 -0.9763725,-2.96895 1.1054025,-1.57302 7.3098685,-5.77458 11.2597835,-7.62492 2.042396,-0.95678 9.0339,-3.44633 12.057215,-4.29355 4.070612,-1.14048 6.311985,-1.50206 10.725785,-1.73028 2.659647,-0.13753 3.953147,-0.0454 4.358779,0.3105 0.41198,0.36146 0.717518,1.56472 0.561918,2.21293 -0.202681,0.84441 -0.638401,0.97596 -4.286144,1.29392 -6.594443,0.57482 -10.367072,1.32748 -15.067199,3.00599 -6.036807,2.15641 -10.147421,4.34445 -15.253118,8.12123 -2.647401,1.95834 -2.620724,1.94513 -3.3807,1.67296 z M 6.3786215,229.61911 c -0.962127,-0.47594 -1.397328,-1.55009 -1.013252,-2.50104 0.33532,-0.83024 2.625053,-2.68534 6.1855245,-5.01138 3.937615,-2.57244 4.205601,-2.69637 11.278306,-5.21591 7.324664,-2.60893 9.332148,-3.13965 13.597332,-3.59241 4.287849,-0.45518 7.019658,-0.41885 7.61242,0.10122 0.398847,0.34994 0.700965,1.56328 0.547964,2.20068 -0.200873,0.83687 -0.651421,0.97973 -3.959877,1.25561 -7.344324,0.61244 -11.040278,1.40351 -16.754058,3.58589 -6.008058,2.2948 -9.137641,4.01576 -14.2295405,7.8248 -1.874016,1.40188 -2.57661,1.69296 -3.264819,1.35253 z m -4.501309,-11.83904 c -1.14994901,-0.64841 -1.34783401,-1.97294 -0.458867,-3.07146 0.844759,-1.04389 5.547784,-4.36471 9.0465765,-6.38781 1.318905,-0.76263 2.358181,-1.17561 8.159503,-3.24233 7.147625,-2.54581 8.910643,-3.04359 12.381447,-3.49226 2.536078,-0.32785 7.374074,-0.48868 8.059771,-0.26795 1.003116,0.3229 1.565364,2.03153 0.964104,2.92984 -0.370249,0.55318 -0.07416,0.50077 -6.224368,1.10184 -5.764467,0.5634 -7.553315,0.96341 -12.99102,2.90507 -6.841356,2.44331 -9.861901,4.00329 -14.6479915,7.56731 -2.98828,2.22528 -3.44499,2.43374 -4.289155,1.95775 z M 90.268463,186.53456 c -0.51694,0.0437 -1.79274,0.10398 -2.83509,0.13393 -2.269166,0.0652 -5.224796,0.43203 -7.548616,0.93688 -2.32562,0.50525 -13.643646,4.53791 -15.565973,5.54624 -1.733889,0.90947 -4.012689,2.3772 -6.068891,3.90884 -2.502687,1.8642 -2.908214,2.08588 -3.684559,2.01418 -0.364225,-0.0337 -0.856351,-0.23641 -1.093608,-0.45062 -0.474458,-0.42828 -0.733782,-1.32886 -0.538714,-1.87089 0.391587,-1.08813 4.663959,-4.19053 9.875951,-7.17148 1.726167,-0.98728 2.135523,-1.14785 8.172984,-3.20603 8.34644,-2.84531 11.02937,-3.4473 16.034766,-3.59782 4.57802,-0.13767 5.93265,0.40686 5.68551,2.28546 -0.12299,0.93485 -0.77881,1.33132 -2.43375,1.47127 z"
       style="fill:#00a82d;fill-opacity:0.89447237;stroke-width:0.17077786" />
  </g>
</svg>
