<?xml version="1.0" encoding="UTF-8" standalone="no"?>
<svg
   xmlns:dc="http://purl.org/dc/elements/1.1/"
   xmlns:cc="http://creativecommons.org/ns#"
   xmlns:rdf="http://www.w3.org/1999/02/22-rdf-syntax-ns#"
   xmlns:svg="http://www.w3.org/2000/svg"
   xmlns="http://www.w3.org/2000/svg"
   id="svg4654"
   version="1.1"
   viewBox="0 0 210 297"
   height="297mm"
   width="210mm">
  <defs
     id="defs4648" />
  <metadata
     id="metadata4651">
    <rdf:RDF>
      <cc:Work
         rdf:about="">
        <dc:format>image/svg+xml</dc:format>
        <dc:type
           rdf:resource="http://purl.org/dc/dcmitype/StillImage" />
        <dc:title></dc:title>
      </cc:Work>
    </rdf:RDF>
  </metadata>
  <g
     id="layer1">
    <path
       style="fill:#00a82d;fill-rule:evenodd;stroke-width:0.26458332"
       d="m 63.120319,25.033659 2.45005,0.870479 -5.87111,-0.11377 1.64307,-0.764646 -0.008,-4.228042 -2.26484,4.566708 -2.46856,-4.299479 0.15346,4.167188 3.00831,0.889 h -6.7601 l 2.73844,-0.878417 -0.43392,-5.881687 -2.36538,-1.023938 4.45294,0.04233 1.95527,3.958167 2.29394,-4.164542 3.88673,0.142875 -2.11931,0.849313 z m 4.42384,-4.463521 3.79412,0.402167 -0.25929,6.1595 c -0.0212,0.518583 -0.10319,0.989542 -0.24871,1.418167 -0.14287,0.425979 -0.35454,0.79375 -0.62971,1.105958 -0.26722,0.301625 -0.60854,0.537104 -1.02393,0.701146 -0.40482,0.166687 -0.88107,0.248708 -1.42611,0.248708 -0.30162,0 -0.60854,-0.04498 -0.9181,-0.134937 -0.30956,-0.08996 -0.59267,-0.219605 -0.84931,-0.391584 -0.24607,-0.179916 -0.4498,-0.396875 -0.60855,-0.650875 -0.15875,-0.256646 -0.23812,-0.552979 -0.23812,-0.889 0,-0.261937 0.082,-0.47625 0.24871,-0.642937 0.16404,-0.171979 0.37835,-0.256646 0.64029,-0.256646 0.2196,0 0.40746,0.08202 0.55827,0.248708 0.15081,0.164042 0.22754,0.354542 0.22754,0.566209 0,0.137583 -0.045,0.267229 -0.13494,0.383645 -0.082,0.116417 -0.18256,0.20373 -0.29897,0.259292 0.15081,0.198438 0.3466,0.34925 0.58737,0.452438 0.24342,0.105833 0.48419,0.156104 0.72496,0.156104 0.35719,0 0.64294,-0.08996 0.85725,-0.269875 0.2196,-0.177271 0.38894,-0.402167 0.508,-0.669396 0.11642,-0.269875 0.19579,-0.558271 0.23548,-0.870479 0.0503,-0.314854 0.0847,-0.611188 0.10319,-0.886354 0.0159,-0.283104 0.0212,-0.558271 0.0212,-0.828146 0.008,-0.275167 0.0185,-0.550333 0.0317,-0.8255 -0.3228,0.08202 -0.62707,0.153458 -0.91017,0.216958 -0.27517,0.05292 -0.57944,0.08202 -0.91017,0.08202 -0.33602,0 -0.66146,-0.03969 -0.97102,-0.113771 -0.30163,-0.07673 -0.5715,-0.195791 -0.80434,-0.362479 -0.22754,-0.164042 -0.4101,-0.378354 -0.54768,-0.640292 -0.14023,-0.261937 -0.20902,-0.579437 -0.20902,-0.949854 0,-0.105833 0.0185,-0.243416 0.0529,-0.415396 0.0423,-0.17727 0.0873,-0.359833 0.13493,-0.547687 0.0556,-0.185208 0.10848,-0.365125 0.16405,-0.537104 0.0556,-0.171979 0.0979,-0.301625 0.12435,-0.391584 l -1.47637,-1.632479 3.54277,1.217084 c -0.0397,0.119062 -0.0979,0.288395 -0.17463,0.508 -0.0688,0.219604 -0.14023,0.449791 -0.21696,0.693208 -0.0767,0.232833 -0.14023,0.460375 -0.19579,0.679979 -0.0556,0.214313 -0.0847,0.373063 -0.0847,0.47625 0,0.171979 0.0423,0.320146 0.12435,0.4445 0.0847,0.124354 0.18786,0.227542 0.31221,0.309563 0.12965,0.08202 0.26988,0.14552 0.42334,0.187854 0.15875,0.0344 0.3122,0.05027 0.46302,0.05027 0.17991,0 0.381,-0.01588 0.6006,-0.05027 0.22754,-0.0344 0.42598,-0.08996 0.60061,-0.166688 l 0.0185,-2.574396 z m 14.39862,3.389313 c 0,0.407458 -0.10848,0.751417 -0.32014,1.034521 -0.21432,0.275166 -0.48419,0.500062 -0.80698,0.672041 -0.32544,0.17198 -0.67469,0.29898 -1.05569,0.381 -0.37835,0.07673 -0.7329,0.113771 -1.06362,0.113771 -0.41275,0 -0.8308,-0.06085 -1.25148,-0.185208 -0.41275,-0.132292 -0.78846,-0.3175 -1.12448,-0.558271 l -0.64029,1.30175 6.41879,0.0926 7.58296,9.419167 -0.0714,-7.186084 -6.25475,-2.55852 13.72129,-0.256646 -5.14086,2.465916 -0.32543,16.139584 -11.25538,-13.115396 0.25665,8.974667 7.44008,2.767541 -15.76652,-0.06879 5.81554,-2.627313 V 29.277576 l -5.62768,-2.606146 3.06387,0.04498 0.33867,-3.489854 c 0.09,0.309563 0.2196,0.592667 0.39158,0.846667 0.17992,0.248708 0.38629,0.463021 0.61913,0.640291 0.23547,0.179917 0.49477,0.3175 0.77522,0.415396 0.29105,0.09525 0.59796,0.142875 0.92075,0.142875 0.11642,0 0.254,-0.01058 0.41275,-0.0291 0.16669,-0.0291 0.32015,-0.07408 0.46567,-0.134937 0.15081,-0.0635 0.28046,-0.145521 0.38365,-0.248708 0.10318,-0.103188 0.15346,-0.230188 0.15346,-0.383646 0,-0.1905 -0.0794,-0.359834 -0.23813,-0.505354 -0.15081,-0.145522 -0.33337,-0.264584 -0.54769,-0.36248 -0.21166,-0.103187 -0.43391,-0.185208 -0.66146,-0.246062 -0.22754,-0.0635 -0.4101,-0.10848 -0.54768,-0.134938 -0.28046,-0.05556 -0.58738,-0.132292 -0.91811,-0.227542 -0.33073,-0.0979 -0.64029,-0.224895 -0.93133,-0.383645 -0.2831,-0.164042 -0.51858,-0.367771 -0.71173,-0.608542 -0.19315,-0.248708 -0.29104,-0.550333 -0.29104,-0.910167 0,-0.41275 0.0979,-0.756708 0.29104,-1.031875 0.19315,-0.283104 0.43656,-0.508 0.7329,-0.672041 0.30427,-0.166688 0.635,-0.283105 0.99218,-0.351896 0.36513,-0.06879 0.71967,-0.103188 1.06363,-0.103188 0.49742,0 0.94192,0.05821 1.3335,0.174625 0.39423,0.116417 0.80698,0.296334 1.24089,0.537104 l 1.03453,-1.259416 -0.38365,3.399896 c -0.17198,-0.275167 -0.37571,-0.534459 -0.60854,-0.77523 -0.22754,-0.24077 -0.4789,-0.452437 -0.75671,-0.629708 -0.27517,-0.187854 -0.5715,-0.330729 -0.889,-0.433917 -0.30956,-0.111125 -0.62971,-0.166687 -0.96044,-0.166687 -0.11641,0 -0.254,0.01852 -0.41275,0.05292 -0.15081,0.02646 -0.29898,0.07408 -0.4445,0.142875 -0.14552,0.0635 -0.26987,0.145521 -0.37306,0.248708 -0.0953,0.103188 -0.14288,0.230188 -0.14288,0.383646 0,0.142875 0.0582,0.267229 0.17463,0.370417 0.12435,0.0979 0.26987,0.179916 0.43392,0.248708 0.17198,0.06085 0.34395,0.113771 0.51593,0.156104 0.17463,0.03969 0.31221,0.07144 0.4154,0.0926 0.30956,0.06879 0.66675,0.161396 1.07421,0.277813 0.40746,0.116416 0.7911,0.272521 1.15623,0.465666 0.36512,0.193146 0.67204,0.431271 0.92075,0.71173 0.254,0.283104 0.38364,0.624416 0.38364,1.023937 z m 3.60627,-5.416021 c 0,0.153458 -0.0317,0.296333 -0.0926,0.433917 -0.0556,0.132291 -0.13493,0.248708 -0.23812,0.351896 -0.0979,0.0979 -0.21431,0.17727 -0.3519,0.238125 -0.12964,0.05556 -0.27252,0.08202 -0.42333,0.08202 -0.15081,0 -0.29369,-0.02646 -0.42333,-0.08202 -0.1323,-0.06086 -0.24872,-0.14023 -0.3519,-0.238125 -0.0952,-0.103188 -0.17463,-0.219605 -0.23813,-0.351896 -0.0556,-0.137584 -0.082,-0.280459 -0.082,-0.433917 0,-0.150812 0.0265,-0.291042 0.082,-0.423333 0.0635,-0.129646 0.14288,-0.243417 0.23813,-0.341313 0.10318,-0.103187 0.2196,-0.182562 0.35189,-0.238125 0.12965,-0.06085 0.27252,-0.0926 0.42334,-0.0926 0.15081,0 0.29368,0.03175 0.42333,0.0926 0.13758,0.05556 0.254,0.134938 0.35189,0.238125 0.10319,0.0979 0.18257,0.211667 0.23813,0.341313 0.0609,0.132291 0.0926,0.272521 0.0926,0.423333 z m -0.37306,6.25475 1.58221,1.074208 -4.63021,-0.08202 1.7145,-1.06627 -0.14287,-3.431646 -1.9738,-0.928688 h 3.79148 l -0.0238,0.325438 3.76502,-0.624417 -0.0503,0.629709 c 0.26723,-0.17198 0.5424,-0.291042 0.8255,-0.351896 0.29105,-0.06085 0.57944,-0.0926 0.86784,-0.0926 0.29633,0 0.56356,0.06085 0.79639,0.185208 0.23548,0.116417 0.45509,0.275167 0.66146,0.47625 0.30427,-0.15875 0.62706,-0.298979 0.97102,-0.423333 0.34661,-0.124354 0.69321,-0.187854 1.04511,-0.187854 0.30162,0 0.56356,0.05027 0.78581,0.145521 0.22754,0.09525 0.41275,0.235479 0.55827,0.41275 0.14288,0.171979 0.25135,0.381 0.32015,0.62177 0.0741,0.232834 0.11377,0.494771 0.11377,0.785813 0,0.129646 -0.0106,0.288396 -0.0318,0.473604 -0.0132,0.179917 -0.0317,0.359833 -0.0529,0.537104 -0.0265,0.206375 -0.0503,0.420688 -0.0714,0.642938 l 1.53987,0.836083 -4.24656,-0.185208 1.38377,-0.672042 c 0.0132,-0.214312 0.0238,-0.423333 0.0317,-0.632354 0.0132,-0.211667 0.0212,-0.425979 0.0212,-0.640292 0,-0.177271 -0.0159,-0.336021 -0.0423,-0.473604 -0.0265,-0.145521 -0.0767,-0.267229 -0.14552,-0.362479 -0.0688,-0.103188 -0.16669,-0.182563 -0.29898,-0.238125 -0.12436,-0.05556 -0.28311,-0.08202 -0.47625,-0.08202 -0.16405,0 -0.31221,0.03704 -0.4445,0.113771 -0.12965,0.07408 -0.24342,0.174625 -0.33867,0.298979 -0.09,0.116416 -0.16404,0.251354 -0.2196,0.402166 -0.0476,0.145521 -0.0767,0.293688 -0.0926,0.4445 -0.0344,0.291042 -0.0635,0.582084 -0.0926,0.878417 -0.0265,0.296333 -0.0556,0.590021 -0.082,0.878417 l 1.37318,0.682625 -4.48468,0.03175 1.9341,-0.743479 v -1.860021 c 0,-0.179917 -0.0318,-0.351896 -0.0953,-0.518584 -0.0608,-0.171979 -0.15081,-0.320145 -0.26723,-0.4445 -0.10319,-0.09525 -0.2196,-0.15875 -0.35189,-0.185208 -0.12436,-0.0344 -0.254,-0.05292 -0.39159,-0.05292 -0.18785,0 -0.38629,0.03175 -0.6006,0.09525 -0.20638,0.06085 -0.36248,0.177271 -0.46567,0.34925 l -0.22755,2.005542 1.36525,0.754063 -4.24656,0.02117 1.73566,-0.711729 -0.30956,-2.492375 c -0.20108,-0.05556 -0.43127,-0.116417 -0.69321,-0.185208 -0.26193,-0.07673 -0.51329,-0.150813 -0.75406,-0.227542 -0.17462,-0.05292 -0.3519,-0.105833 -0.53446,-0.161396 z m 19.068521,-1.624542 c 0,0.386292 -0.082,0.73025 -0.24606,1.034521 -0.15875,0.301625 -0.37306,0.558271 -0.64294,0.764646 -0.26194,0.206375 -0.56356,0.365125 -0.90752,0.47625 -0.33867,0.108479 -0.68527,0.164042 -1.0451,0.164042 -0.29634,0 -0.59267,-0.02117 -0.889,-0.06085 -0.2884,-0.05027 -0.571501,-0.124354 -0.846671,-0.227542 l 0.0318,2.016125 2.137831,0.867833 -5.900201,0.235479 2.30452,-1.031875 c -0.0132,-0.256646 -0.0318,-0.537104 -0.0529,-0.846666 -0.0132,-0.3175 -0.0291,-0.645583 -0.0503,-0.98425 -0.0212,-0.336021 -0.0423,-0.677333 -0.0635,-1.021292 -0.0212,-0.343958 -0.0397,-0.679979 -0.0608,-1.00277 -0.0476,-0.751417 -0.0979,-1.518709 -0.14553,-2.304521 l -2.45004,-0.83873 4.22804,-0.463021 v 1.010709 c 0.489481,-0.137584 0.981611,-0.206375 1.479021,-0.206375 0.37042,0 0.74084,0.04498 1.10596,0.134937 0.37042,0.08996 0.70644,0.230188 1.00277,0.423334 0.30163,0.193145 0.54769,0.4445 0.7329,0.754062 0.18521,0.304271 0.27781,0.672042 0.27781,1.105958 z m -1.56898,-0.08202 c 0,-0.269875 -0.0608,-0.49477 -0.17727,-0.682625 -0.11641,-0.185208 -0.26723,-0.33602 -0.45508,-0.455083 -0.18521,-0.124354 -0.39423,-0.211666 -0.62971,-0.267229 -0.22754,-0.05556 -0.45508,-0.08202 -0.68262,-0.08202 -0.18521,0 -0.37042,0.02381 -0.55828,0.07144 -0.177271,0.04233 -0.351891,0.100541 -0.515931,0.174625 v 2.542646 c 0.19843,0.0979 0.420681,0.169333 0.661461,0.216958 0.24077,0.04762 0.47095,0.07408 0.6932,0.07408 0.24077,0 0.46038,-0.0344 0.66146,-0.103188 0.20638,-0.07673 0.381,-0.182562 0.52652,-0.322791 0.15082,-0.137584 0.26723,-0.301625 0.3519,-0.494771 0.082,-0.201083 0.12435,-0.423333 0.12435,-0.672042 z m 4.46352,2.386542 1.64307,1.002771 -4.70165,0.177271 1.76742,-1.127125 -0.34132,-7.813146 -2.42887,-0.899583 4.37092,-0.05292 z m 7.29721,-1.508125 c 0,0.04763 -0.003,0.0979 -0.0106,0.145521 0,0.04762 0,0.09525 0,0.142875 l -4.20688,0.08467 c 0.09,0.404812 0.29369,0.706437 0.61119,0.899583 0.31486,0.1905 0.67469,0.288396 1.07421,0.288396 0.19315,0 0.38894,-0.01323 0.59002,-0.04233 0.19844,-0.02646 0.39423,-0.07144 0.58738,-0.132292 0.19314,-0.0635 0.3757,-0.142875 0.54768,-0.238125 0.17198,-0.103188 0.32809,-0.224896 0.46567,-0.362479 -0.0767,0.288396 -0.20373,0.545041 -0.38365,0.764646 -0.17727,0.219604 -0.39158,0.402166 -0.64029,0.547687 -0.24077,0.145521 -0.50535,0.254 -0.79639,0.330729 -0.28046,0.06879 -0.56357,0.103188 -0.84667,0.103188 -0.38629,0 -0.75406,-0.06879 -1.10596,-0.206375 -0.34396,-0.137584 -0.64823,-0.328084 -0.91017,-0.568854 -0.254,-0.240771 -0.45772,-0.529167 -0.60854,-0.867834 -0.15081,-0.338666 -0.22754,-0.706437 -0.22754,-1.105958 0,-0.420688 0.0873,-0.801688 0.25929,-1.148292 0.17198,-0.343958 0.39952,-0.635 0.68263,-0.878416 0.28046,-0.246063 0.60854,-0.436563 0.9816,-0.566209 0.37042,-0.132291 0.75936,-0.198437 1.16681,-0.198437 0.42598,0 0.80963,0.07937 1.1483,0.238125 0.34395,0.15875 0.635,0.375708 0.87841,0.650875 0.24077,0.275166 0.42334,0.597958 0.54769,0.963083 0.12965,0.357188 0.19579,0.743479 0.19579,1.156229 z m -4.21746,-0.568854 2.63525,0.04233 c -0.0132,-0.185208 -0.0503,-0.365125 -0.11377,-0.537104 -0.0608,-0.171979 -0.14816,-0.325437 -0.25664,-0.455083 -0.11113,-0.132292 -0.24607,-0.235479 -0.40482,-0.309563 -0.15081,-0.08467 -0.33072,-0.124354 -0.5371,-0.124354 -0.20637,0 -0.38629,0.03704 -0.5371,0.113771 -0.15082,0.07408 -0.27782,0.177271 -0.38365,0.309563 -0.10319,0.124354 -0.18785,0.27252 -0.25665,0.4445 -0.0635,0.164041 -0.11112,0.338666 -0.14552,0.515937 z m 0.78582,14.549437 c 0,1.068917 -0.26988,1.976438 -0.81227,2.719917 -0.52917,0.73025 -1.20915,1.325563 -2.04788,1.791229 -0.82021,0.449792 -1.71979,0.783167 -2.6961,1.000125 -0.97896,0.201084 -1.90765,0.301625 -2.79136,0.301625 -0.86783,0 -1.77535,-0.108479 -2.719911,-0.325437 -0.93134,-0.216959 -1.79123,-0.558271 -2.58234,-1.021292 -0.77523,-0.465667 -1.41816,-1.063625 -1.92881,-1.791229 -0.49742,-0.743479 -0.74613,-1.635125 -0.74613,-2.674938 0,-1.132416 0.27253,-2.069041 0.81492,-2.81252 0.5424,-0.746125 1.22502,-1.3335 2.04523,-1.767417 0.83873,-0.433917 1.75154,-0.738187 2.743731,-0.907521 1.00806,-0.171979 1.97908,-0.256646 2.90777,-0.256646 0.85196,0 1.73567,0.10848 2.65113,0.325438 0.93133,0.216958 1.77535,0.558271 2.5347,1.023937 0.77523,0.449792 1.4023,1.037167 1.88384,1.767417 0.49477,0.727604 0.74348,1.603375 0.74348,2.627312 z m -3.83646,-0.04763 c 0,-0.555625 -0.10848,-1.068916 -0.32544,-1.534583 -0.20108,-0.463021 -0.48948,-0.867833 -0.8599,-1.209146 -0.35718,-0.341312 -0.77522,-0.60325 -1.25677,-0.788458 -0.47889,-0.187854 -0.99218,-0.280458 -1.53458,-0.280458 -0.55827,0 -1.11654,0.08467 -1.67481,0.256645 -0.55827,0.153459 -1.06098,0.386292 -1.51077,0.695855 -0.449791,0.312208 -0.814921,0.706437 -1.092731,1.187979 -0.28046,0.463021 -0.41804,1.000125 -0.41804,1.603375 0,0.605896 0.0926,1.156229 0.27781,1.651 0.20108,0.497416 0.48154,0.923396 0.83873,1.280583 0.37041,0.354542 0.804331,0.635 1.301751,0.836083 0.49477,0.185209 1.0451,0.277813 1.651,0.277813 0.65087,0 1.25412,-0.06879 1.81239,-0.209021 0.55827,-0.153458 1.04775,-0.394229 1.4658,-0.719667 0.41804,-0.325437 0.74347,-0.735541 0.97631,-1.232958 0.23283,-0.510646 0.34925,-1.116542 0.34925,-1.815042 z m 10.25525,-9.813395 4.48733,0.465666 -0.20902,2.185459 c -0.75935,-0.06086 -1.51077,-0.116417 -2.25425,-0.161396 -0.74612,-0.0635 -1.49754,-0.132292 -2.2569,-0.209021 -0.12435,1.471083 -0.25664,2.936875 -0.39422,4.394729 -0.14023,1.457854 -0.28046,2.921 -0.42069,4.394729 0,0.07673 -0.005,0.156104 -0.0212,0.232834 -0.0159,0.07673 -0.0238,0.156104 -0.0238,0.232833 0,0.216958 0.0238,0.441854 0.0688,0.674687 0.0476,0.216959 0.12435,0.418042 0.23283,0.60325 0.10848,0.17198 0.24871,0.3175 0.41804,0.441855 0.18786,0.108479 0.41275,0.164041 0.67469,0.164041 0.51329,0 0.96308,-0.116416 1.34937,-0.34925 0.3863,-0.248708 0.71438,-0.558271 0.97632,-0.931333 0.26458,-0.370417 0.4736,-0.783167 0.62706,-1.230313 0.1561,-0.465666 0.25665,-0.923395 0.30427,-1.373187 0.18521,0.727604 0.27781,1.449917 0.27781,2.161646 0,0.682625 -0.10848,1.304396 -0.32543,1.862666 -0.21696,0.542396 -0.51859,1.013355 -0.90753,1.418167 -0.38629,0.386292 -0.85195,0.687917 -1.39435,0.904875 -0.5424,0.216958 -1.14035,0.325438 -1.79123,0.325438 -0.68262,0 -1.27794,-0.113771 -1.79123,-0.346605 -0.51064,-0.232833 -0.93662,-0.550333 -1.27794,-0.955145 -0.32543,-0.418042 -0.57414,-0.904875 -0.74347,-1.463146 -0.15611,-0.558271 -0.23284,-1.156229 -0.23284,-1.791229 0,-0.124355 0,-0.240771 0,-0.34925 0,-0.108479 0.008,-0.224896 0.0238,-0.34925 0.12436,-1.502834 0.24077,-2.9845 0.34925,-4.442354 0.12171,-1.471084 0.23019,-2.960688 0.32544,-4.463521 -0.42069,-0.03175 -0.83873,-0.0635 -1.25677,-0.0926 -0.40217,-0.04763 -0.81492,-0.09261 -1.23296,-0.14023 l 0.0926,-1.836208 c 0.32544,-0.01588 0.66675,-0.07144 1.02394,-0.164042 0.35719,-0.0926 0.6985,-0.216958 1.02394,-0.370416 0.34131,-0.156104 0.65087,-0.341313 0.92868,-0.558271 0.29634,-0.216958 0.53711,-0.465667 0.72232,-0.746125 0.16933,-0.277813 0.32543,-0.579438 0.46566,-0.904875 0.15346,-0.325438 0.28575,-0.66675 0.39423,-1.023938 0.12436,-0.357187 0.2249,-0.706437 0.30163,-1.04775 0.0794,-0.354541 0.13229,-0.695854 0.16404,-1.021291 l 1.905,0.04498 z m 17.79058,11.255375 c 0,0.108479 -0.008,0.216958 -0.0238,0.325437 0,0.108479 0,0.216958 0,0.325438 l -9.46415,0.187854 c 0.20109,0.915458 0.65882,1.5875 1.37055,2.021416 0.71437,0.436563 1.5187,0.653521 2.41829,0.653521 0.43391,0 0.87577,-0.03175 1.32556,-0.09525 0.44979,-0.06085 0.89165,-0.161396 1.32556,-0.301625 0.43392,-0.140229 0.84667,-0.3175 1.23296,-0.534458 0.38894,-0.232833 0.73554,-0.502708 1.04775,-0.814917 -0.17198,0.650875 -0.45773,1.225021 -0.86254,1.722438 -0.40217,0.494771 -0.88371,0.907521 -1.44198,1.232958 -0.5424,0.325438 -1.13771,0.5715 -1.78858,0.743479 -0.63765,0.153459 -1.27265,0.232834 -1.90765,0.232834 -0.86783,0 -1.69862,-0.156105 -2.48708,-0.465667 -0.77523,-0.309563 -1.45786,-0.735542 -2.04788,-1.277938 -0.57414,-0.545041 -1.03187,-1.195916 -1.37054,-1.95527 -0.34131,-0.759355 -0.51329,-1.5875 -0.51329,-2.487084 0,-0.947208 0.19315,-1.807104 0.58208,-2.582333 0.38629,-0.775229 0.89959,-1.434042 1.53459,-1.976438 0.635,-0.55827 1.37318,-0.98425 2.20927,-1.277937 0.83608,-0.296333 1.71185,-0.441854 2.62731,-0.441854 0.96044,0 1.82298,0.177271 2.58233,0.534458 0.77523,0.357188 1.43404,0.844021 1.97644,1.465792 0.5424,0.619125 0.9525,1.338791 1.23296,2.161646 0.29369,0.806979 0.44185,1.674812 0.44185,2.6035 z m -9.48796,-1.277938 5.92932,0.0926 c -0.0318,-0.418032 -0.11642,-0.820199 -0.25665,-1.209137 -0.14023,-0.386291 -0.33338,-0.727604 -0.58208,-1.023937 -0.24607,-0.293688 -0.55034,-0.526521 -0.90488,-0.695854 -0.34131,-0.187854 -0.74612,-0.280459 -1.20914,-0.280459 -0.46567,0 -0.86784,0.08467 -1.20915,0.256646 -0.34131,0.169334 -0.62971,0.402167 -0.86254,0.6985 -0.23019,0.277813 -0.42598,0.611188 -0.57944,1.000125 -0.14023,0.370417 -0.24871,0.759354 -0.32544,1.161521 z m 22.4155,1.582208 c 0,0.77523 -0.17727,1.41023 -0.53446,1.905 -0.35718,0.497417 -0.80697,0.891646 -1.34937,1.18798 -0.5424,0.277812 -1.14565,0.478895 -1.8124,0.60325 -0.66675,0.108479 -1.30968,0.164041 -1.93145,0.164041 -0.35455,0 -0.75142,-0.02381 -1.18534,-0.07144 -0.41804,-0.06085 -0.83608,-0.145521 -1.25412,-0.254 -0.42069,-0.108479 -0.83079,-0.240771 -1.23296,-0.396875 -0.38894,-0.153458 -0.73819,-0.341313 -1.04775,-0.558271 l -1.88383,2.209271 0.72231,-7.114646 c 0.26194,0.574146 0.59531,1.116542 1.00012,1.627188 0.41804,0.510645 0.89165,0.960437 1.41817,1.349374 0.52652,0.386292 1.09273,0.695855 1.69598,0.928688 0.60589,0.216958 1.23296,0.325438 1.88383,0.325438 0.17198,0 0.36513,-0.0079 0.58209,-0.02117 0.23283,-0.03175 0.44979,-0.08731 0.65087,-0.164042 0.21696,-0.07673 0.39688,-0.185208 0.53446,-0.325437 0.14023,-0.14023 0.20902,-0.325438 0.20902,-0.558271 0,-0.264583 -0.13758,-0.502709 -0.41804,-0.719667 -0.27781,-0.232833 -0.60325,-0.428625 -0.97631,-0.582083 -0.37307,-0.171979 -0.74348,-0.309563 -1.11655,-0.418042 -0.37041,-0.124354 -0.65087,-0.216958 -0.83608,-0.280458 -0.52652,-0.153458 -1.1086,-0.362479 -1.7436,-0.627063 -0.62177,-0.280458 -1.20386,-0.605896 -1.74625,-0.976312 -0.52652,-0.388938 -0.96838,-0.838729 -1.32557,-1.349375 -0.35454,-0.526521 -0.53445,-1.132417 -0.53445,-1.815042 0,-0.650875 0.1561,-1.230312 0.46566,-1.743604 0.32544,-0.510646 0.73554,-0.936625 1.23296,-1.277937 0.49477,-0.357188 1.0451,-0.621771 1.651,-0.791105 0.61913,-0.185208 1.22502,-0.277812 1.8124,-0.277812 0.93133,0 1.8071,0.169333 2.62995,0.510646 0.83609,0.325437 1.59544,0.799041 2.27807,1.418166 l 1.44198,-2.791354 -0.30163,7.350125 c -0.28046,-0.529167 -0.62971,-1.055687 -1.04775,-1.582208 -0.41804,-0.542396 -0.88371,-1.031875 -1.39435,-1.465792 -0.51329,-0.433916 -1.06363,-0.783166 -1.651,-1.045104 -0.59002,-0.264572 -1.20121,-0.396864 -1.83886,-0.396864 -0.18521,0 -0.40216,0.02381 -0.65087,0.07144 -0.23284,0.03175 -0.45773,0.0926 -0.67469,0.185208 -0.20108,0.0926 -0.37835,0.224896 -0.53446,0.396875 -0.13758,0.153458 -0.20902,0.354542 -0.20902,0.60325 0,0.293687 0.10848,0.550333 0.32544,0.767291 0.23283,0.216959 0.50535,0.410105 0.81492,0.582084 0.32543,0.153458 0.65087,0.293687 0.97631,0.418042 0.34131,0.108479 0.61912,0.193145 0.83608,0.256645 0.55827,0.185209 1.18798,0.402167 1.88383,0.650875 0.6985,0.248709 1.35732,0.550334 1.97644,0.907521 0.62177,0.354542 1.14036,0.796396 1.5584,1.325563 0.43391,0.510646 0.65087,1.12977 0.65087,1.86002 z"
       class="shp0"
       id="Logo" />
  </g>
</svg>
