<svg width="349" height="104" viewBox="0 0 349 104" fill="none" xmlns="http://www.w3.org/2000/svg">
<path fill-rule="evenodd" clip-rule="evenodd" d="M37.3144 30.2852L46.2962 33.4736L24.7729 33.0569L30.7963 30.2561L30.767 14.7695L22.4642 31.4966L13.4145 15.7483L13.9771 31.0121L25.0055 34.2683H0.22311L10.2622 31.0508L8.67142 9.50713L0 5.75662L16.3244 5.91166L23.4923 20.4098L31.9019 5.15574L46.1505 5.67908L38.3812 8.78997L37.3144 30.2852ZM53.5321 13.936L67.4413 15.4091L66.4907 37.9704C66.413 39.8699 66.1124 41.5949 65.5789 43.1649C65.0552 44.7252 64.2792 46.0723 63.2704 47.2158C62.2908 48.3206 61.0395 49.1832 59.5167 49.784C58.0327 50.3946 56.2867 50.695 54.2886 50.695C53.1829 50.695 52.0578 50.5302 50.9229 50.2007C49.7881 49.8712 48.7502 49.3964 47.8094 48.7664C46.9073 48.1074 46.1604 47.3128 45.5785 46.3824C44.9965 45.4423 44.7055 44.3569 44.7055 43.1261C44.7055 42.1667 45.0061 41.3817 45.6173 40.7712C46.2186 40.1412 47.0043 39.8311 47.9646 39.8311C48.7696 39.8311 49.4583 40.1315 50.0111 40.7421C50.564 41.3429 50.8453 42.0407 50.8453 42.816C50.8453 43.32 50.6803 43.7948 50.3506 44.2212C50.05 44.6477 49.6814 44.9675 49.2546 45.171C49.8075 45.8978 50.5252 46.4502 51.4079 46.8282C52.3003 47.2158 53.1829 47.4 54.0656 47.4C55.375 47.4 56.4226 47.0705 57.2082 46.4115C58.0133 45.7621 58.6341 44.9384 59.0706 43.9596C59.4974 42.9711 59.7883 41.9147 59.9338 40.7712C60.1182 39.6179 60.2443 38.5325 60.3121 37.5246C60.3704 36.4876 60.3898 35.4797 60.3898 34.4912C60.4192 33.4833 60.4577 32.4754 60.506 31.4675C59.3227 31.768 58.2072 32.0296 57.1694 32.2622C56.1606 32.4561 55.0452 32.5626 53.8327 32.5626C52.6009 32.5626 51.4078 32.4173 50.273 32.1459C49.1672 31.8649 48.1779 31.4288 47.3243 30.8182C46.4901 30.2174 45.8209 29.4324 45.3165 28.4729C44.8024 27.5135 44.5503 26.3505 44.5503 24.9938C44.5503 24.6061 44.6181 24.1022 44.7442 23.4722C44.8992 22.8229 45.0642 22.1542 45.2388 21.4661C45.4427 20.7878 45.6365 20.1288 45.8402 19.4988C46.044 18.8689 46.1991 18.394 46.2961 18.0645L40.8837 12.085L53.8715 16.543C53.7259 16.9791 53.5126 17.5993 53.2313 18.4037C52.979 19.2081 52.7172 20.0512 52.4359 20.9428C52.1547 21.7956 51.9218 22.6291 51.7181 23.4335C51.5143 24.2185 51.4076 24.7999 51.4076 25.1779C51.4076 25.8078 51.5627 26.3505 51.8635 26.806C52.174 27.2615 52.5522 27.6395 53.008 27.9399C53.4833 28.2403 53.9974 28.4729 54.56 28.628C55.142 28.754 55.7045 28.8121 56.2574 28.8121C56.917 28.8121 57.6542 28.754 58.4592 28.628C59.2934 28.502 60.0208 28.2985 60.661 28.0174L60.7289 18.5878L53.5321 13.936ZM106.317 26.3506C106.317 27.843 105.919 29.1029 105.143 30.1398C104.358 31.1477 103.368 31.9715 102.185 32.6014C100.992 33.2314 99.7117 33.6965 98.315 33.997C96.9279 34.278 95.6282 34.4137 94.4158 34.4137C92.9026 34.4137 91.3701 34.1908 89.8279 33.7353C88.3147 33.2507 86.9374 32.5723 85.7055 31.6904L83.3583 36.4585L106.889 36.7977L134.688 71.2986L134.427 44.9771L111.497 35.6057L161.799 34.6656L142.952 43.6979L141.759 102.815L100.497 54.775L101.438 87.6478L128.714 97.7848L70.9139 97.5329L92.2335 87.9094V45.83L71.6025 36.2841L82.8346 36.4488L84.0762 23.6661C84.4061 24.8 84.8812 25.8369 85.5117 26.7673C86.1713 27.6783 86.9278 28.4633 87.7814 29.1126C88.6446 29.7716 89.5952 30.2755 90.6233 30.6341C91.6903 30.983 92.8154 31.1574 93.9988 31.1574C94.4256 31.1574 94.9299 31.1187 95.5119 31.0508C96.123 30.9442 96.6856 30.7795 97.219 30.5566C97.7719 30.324 98.2472 30.0236 98.6255 29.6456C99.0038 29.2676 99.1881 28.8025 99.1881 28.2404C99.1881 27.5426 98.897 26.9224 98.3151 26.3893C97.7622 25.8563 97.093 25.4202 96.3073 25.0616C95.5313 24.6837 94.7166 24.3832 93.8824 24.1603C93.0482 23.9278 92.379 23.763 91.8746 23.6661C90.8465 23.4626 89.7213 23.1815 88.5088 22.8326C87.2964 22.474 86.1616 22.0089 85.0946 21.4274C84.0568 20.8266 83.1935 20.0803 82.4854 19.1984C81.7773 18.2874 81.4185 17.1826 81.4185 15.8646C81.4185 14.3528 81.7774 13.0929 82.4854 12.085C83.1935 11.0481 84.0858 10.2243 85.1722 9.62345C86.2877 9.0129 87.5001 8.58648 88.8095 8.33451C90.1481 8.08254 91.4478 7.95655 92.7088 7.95655C94.5323 7.95655 96.1618 8.16977 97.5973 8.59618C99.0426 9.02259 100.556 9.6816 102.146 10.5635L105.939 5.95046L104.533 18.4037C103.902 17.3958 103.155 16.4461 102.302 15.5642C101.467 14.6823 100.546 13.907 99.5275 13.2577C98.5188 12.5696 97.4324 12.0463 96.2685 11.6683C95.1336 11.2613 93.96 11.0578 92.7476 11.0578C92.3208 11.0578 91.8164 11.1256 91.2344 11.2516C90.6816 11.3485 90.1384 11.5229 89.6049 11.7749C89.0714 12.0075 88.6155 12.3079 88.2373 12.6859C87.8879 13.0639 87.7135 13.529 87.7135 14.0911C87.7135 14.6145 87.9268 15.0699 88.3537 15.4479C88.8095 15.8065 89.343 16.1069 89.9444 16.3589C90.5749 16.5818 91.2053 16.7756 91.8358 16.9307C92.476 17.076 92.9803 17.1923 93.3586 17.2698C94.4935 17.5218 95.8029 17.861 97.2967 18.2874C98.7904 18.7138 100.197 19.2856 101.535 19.9931C102.874 20.7006 103.999 21.5728 104.911 22.6C105.842 23.637 106.317 24.8872 106.317 26.3506L106.317 26.3506ZM119.538 6.51254C119.538 7.07463 119.421 7.59795 119.198 8.1019C118.994 8.58646 118.703 9.01288 118.325 9.39084C117.966 9.74943 117.54 10.0402 117.035 10.2631C116.56 10.4666 116.036 10.5635 115.483 10.5635C114.93 10.5635 114.407 10.4666 113.931 10.2631C113.446 10.0401 113.019 9.74941 112.641 9.39084C112.292 9.01288 112.001 8.58646 111.768 8.1019C111.564 7.59795 111.468 7.07463 111.468 6.51254C111.468 5.96014 111.565 5.44649 111.768 4.96193C112.001 4.48706 112.292 4.07034 112.641 3.71176C113.019 3.3338 113.446 3.04306 113.931 2.83954C114.407 2.61666 114.93 2.50037 115.483 2.50037C116.036 2.50037 116.56 2.61666 117.035 2.83954C117.539 3.04305 117.966 3.3338 118.325 3.71176C118.703 4.07035 118.994 4.48706 119.198 4.96193C119.421 5.44649 119.538 5.96014 119.538 6.51254V6.51254ZM118.17 29.4227L123.97 33.3573L106.996 33.0569L113.281 29.1513L112.758 16.5818L105.522 13.1801H119.421L119.334 14.3722L133.136 12.085L132.952 14.3915C133.932 13.7616 134.94 13.3255 135.978 13.1026C137.045 12.8797 138.102 12.7634 139.16 12.7634C140.246 12.7634 141.226 12.9863 142.079 13.4418C142.943 13.8682 143.748 14.4497 144.504 15.1862C145.62 14.6048 146.803 14.0911 148.064 13.6356C149.335 13.1801 150.605 12.9476 151.895 12.9476C153.001 12.9476 153.961 13.1317 154.776 13.4806C155.61 13.8295 156.289 14.3431 156.823 14.9924C157.346 15.6223 157.744 16.388 157.996 17.2699C158.268 18.1227 158.413 19.0821 158.413 20.1482C158.413 20.623 158.375 21.2045 158.297 21.8829C158.248 22.5419 158.181 23.2009 158.103 23.8502C158.006 24.6061 157.918 25.3911 157.841 26.2052L163.486 29.2676L147.918 28.5893L152.991 26.1277C153.04 25.3427 153.079 24.5771 153.108 23.8115C153.156 23.0362 153.185 22.2512 153.185 21.4662C153.185 20.8169 153.127 20.2354 153.03 19.7314C152.933 19.1984 152.749 18.7526 152.497 18.4037C152.244 18.0258 151.886 17.735 151.401 17.5315C150.945 17.328 150.363 17.2311 149.655 17.2311C149.053 17.2311 148.51 17.3668 148.025 17.6478C147.55 17.9192 147.133 18.2874 146.784 18.7429C146.454 19.1693 146.182 19.6636 145.979 20.216C145.804 20.749 145.697 21.2917 145.639 21.8441C145.513 22.9102 145.406 23.9762 145.3 25.0616C145.203 26.1471 145.096 27.2228 144.999 28.2791L150.033 30.7795L133.592 30.8958L140.683 28.1725V21.3596C140.683 20.7006 140.566 20.0706 140.333 19.4601C140.11 18.8301 139.78 18.2874 139.354 17.8319C138.975 17.4831 138.549 17.2505 138.064 17.1536C137.608 17.0276 137.133 16.9597 136.628 16.9597C135.939 16.9597 135.212 17.076 134.426 17.3086C133.67 17.5315 133.098 17.9579 132.719 18.5879L131.885 25.9338L136.89 28.6959L121.322 28.7734L127.685 26.1664L126.55 17.0373C125.813 16.8338 124.969 16.6109 124.009 16.3589C123.049 16.0778 122.127 15.8065 121.245 15.5254C120.604 15.3316 119.955 15.1378 119.285 14.9343L118.17 29.4227ZM188.075 23.4722C188.075 24.8872 187.774 26.147 187.173 27.2615C186.591 28.3663 185.805 29.3064 184.816 30.0623C183.855 30.8182 182.75 31.3997 181.489 31.8067C180.247 32.2041 178.976 32.4076 177.657 32.4076C176.571 32.4076 175.485 32.33 174.398 32.1847C173.341 32.0006 172.303 31.7292 171.294 31.3513L171.411 38.736L179.248 41.9147L157.618 42.7773L166.067 38.9977C166.018 38.0576 165.95 37.0303 165.873 35.8965C165.824 34.7335 165.766 33.5318 165.688 32.2913C165.611 31.0605 165.533 29.8103 165.455 28.5505C165.378 27.2906 165.31 26.0598 165.233 24.8775C165.058 22.1252 164.874 19.3147 164.699 16.4364L155.717 13.3643L171.217 11.6683V15.3704C173.012 14.8664 174.816 14.6144 176.639 14.6144C177.997 14.6144 179.355 14.7792 180.694 15.1087C182.052 15.4382 183.283 15.9518 184.37 16.6593C185.476 17.3668 186.378 18.2874 187.057 19.4213C187.736 20.5358 188.075 21.8829 188.075 23.4723L188.075 23.4722ZM182.323 23.1718C182.323 22.1833 182.1 21.3596 181.673 20.6715C181.246 19.9931 180.693 19.4407 180.005 19.0046C179.326 18.5491 178.559 18.2293 177.696 18.0258C176.862 17.8223 176.028 17.7253 175.194 17.7253C174.515 17.7253 173.836 17.8125 173.147 17.987C172.497 18.1421 171.857 18.3553 171.256 18.6266V27.9399C171.983 28.2985 172.798 28.5602 173.681 28.7346C174.563 28.909 175.407 29.006 176.222 29.006C177.104 29.006 177.91 28.88 178.647 28.628C179.403 28.347 180.043 27.9593 180.577 27.4457C181.13 26.9417 181.557 26.3409 181.867 25.6334C182.168 24.8969 182.323 24.0828 182.323 23.1718V23.1718ZM198.686 31.9133L204.709 35.5863L187.473 36.2356L193.953 32.1072L192.701 3.48887L183.797 0.193835L199.821 0L198.686 31.9133ZM225.437 26.3893C225.437 26.5638 225.426 26.7479 225.398 26.9223C225.398 27.0968 225.398 27.2712 225.398 27.4457L209.976 27.7558C210.306 29.2386 211.053 30.3434 212.217 31.0508C213.371 31.7486 214.69 32.1072 216.155 32.1072C216.863 32.1072 217.581 32.0587 218.318 31.9521C219.045 31.8552 219.763 31.6905 220.471 31.4676C221.179 31.235 221.848 30.9442 222.479 30.5954C223.109 30.2174 223.682 29.7716 224.186 29.2676C223.905 30.324 223.439 31.264 222.78 32.0684C222.13 32.8728 221.344 33.5415 220.432 34.0745C219.55 34.6075 218.58 35.0049 217.513 35.2859C216.485 35.5379 215.447 35.6639 214.409 35.6639C212.993 35.6639 211.645 35.4119 210.354 34.908C209.094 34.404 207.978 33.7062 207.018 32.8243C206.087 31.9424 205.34 30.8861 204.787 29.6456C204.234 28.4051 203.953 27.058 203.953 25.5947C203.953 24.0537 204.273 22.6582 204.903 21.3887C205.534 20.1288 206.368 19.0627 207.406 18.1712C208.434 17.2699 209.637 16.5721 211.004 16.0972C212.362 15.6127 213.788 15.3704 215.282 15.3704C216.843 15.3704 218.25 15.6611 219.491 16.2426C220.752 16.8241 221.819 17.6187 222.712 18.6266C223.594 19.6345 224.264 20.8169 224.72 22.1543C225.195 23.4626 225.437 24.8775 225.437 26.3893L225.437 26.3893ZM209.976 24.3057L219.637 24.4607C219.589 23.7824 219.453 23.1233 219.22 22.4934C218.997 21.8635 218.677 21.3014 218.279 20.8265C217.872 20.342 217.377 19.964 216.795 19.6926C216.242 19.3825 215.583 19.2372 214.826 19.2372C214.069 19.2372 213.41 19.3728 212.857 19.6539C212.304 19.9252 211.839 20.3032 211.451 20.7878C211.072 21.2432 210.762 21.786 210.51 22.4159C210.277 23.0167 210.102 23.6564 209.976 24.3057V24.3057ZM212.857 77.598C212.857 81.5132 211.868 84.8373 209.879 87.5606C207.939 90.2354 205.447 92.4159 202.372 94.1216C199.365 95.7691 196.067 96.9902 192.488 97.7848C188.899 98.5214 185.495 98.8897 182.255 98.8897C179.073 98.8897 175.747 98.4923 172.284 97.6976C168.87 96.9029 165.717 95.6528 162.817 93.9568C159.975 92.2511 157.618 90.0609 155.746 87.3958C153.923 84.6726 153.011 81.4066 153.011 77.598C153.011 73.4501 154.01 70.0194 155.998 67.2961C157.987 64.5632 160.489 62.4117 163.496 60.8224C166.571 59.233 169.917 58.1185 173.554 57.4983C177.25 56.8683 180.81 56.5582 184.214 56.5582C187.337 56.5582 190.577 56.9556 193.933 57.7502C197.347 58.5449 200.442 59.7951 203.225 61.5008C206.067 63.1483 208.366 65.2997 210.131 67.9745C211.945 70.6396 212.857 73.8474 212.857 77.598V77.598ZM198.793 77.4235C198.793 75.3883 198.395 73.5082 197.6 71.8026C196.862 70.1066 195.805 68.6238 194.447 67.3737C193.138 66.1235 191.605 65.164 189.84 64.4857C188.084 63.7976 186.203 63.4584 184.214 63.4584C182.168 63.4584 180.121 63.7685 178.074 64.3984C176.028 64.9605 174.185 65.8134 172.536 66.9472C170.887 68.0908 169.549 69.5348 168.53 71.2986C167.502 72.9946 166.998 74.9619 166.998 77.1715C166.998 79.3908 167.337 81.4066 168.016 83.2189C168.753 85.0408 169.781 86.6011 171.091 87.9094C172.449 89.2081 174.039 90.2353 175.863 90.9719C177.677 91.6503 179.694 91.9895 181.915 91.9895C184.302 91.9895 186.513 91.7375 188.56 91.2238C190.606 90.6618 192.401 89.7799 193.933 88.5878C195.466 87.3958 196.659 85.8937 197.512 84.0717C198.366 82.2013 198.793 79.982 198.793 77.4235V77.4235ZM236.388 41.4786L252.839 43.1843L252.072 51.1892C249.289 50.9663 246.534 50.7628 243.808 50.5981C241.073 50.3655 238.318 50.1135 235.535 49.8325C235.079 55.2208 234.594 60.5898 234.089 65.9297C233.575 71.2695 233.061 76.6288 232.547 82.0268C232.547 82.3079 232.529 82.5986 232.469 82.8797C232.411 83.1607 232.382 83.4515 232.382 83.7325C232.382 84.5272 232.469 85.3509 232.634 86.2038C232.809 86.9985 233.09 87.735 233.488 88.4134C233.886 89.0433 234.4 89.5763 235.02 90.0318C235.709 90.4292 236.534 90.6327 237.494 90.6327C239.376 90.6327 241.024 90.2063 242.441 89.3534C243.857 88.4425 245.06 87.3086 246.02 85.9421C246.99 84.5853 247.756 83.0735 248.319 81.4357C248.891 79.73 249.259 78.0534 249.434 76.4059C250.113 79.071 250.452 81.7167 250.452 84.3237C250.452 86.824 250.055 89.1015 249.259 91.1463C248.464 93.133 247.358 94.8581 245.932 96.3408C244.516 97.7558 242.809 98.8606 240.821 99.6553C238.832 100.45 236.64 100.847 234.254 100.847C231.752 100.847 229.569 100.431 227.688 99.5777C225.816 98.7249 224.254 97.5619 223.003 96.0792C221.81 94.548 220.898 92.7648 220.277 90.7199C219.705 88.6751 219.424 86.4848 219.424 84.1589C219.424 83.7034 219.424 83.277 219.424 82.8797C219.424 82.4823 219.453 82.0559 219.511 81.6004C219.967 76.0958 220.393 70.6687 220.791 65.3288C221.237 59.9405 221.635 54.4843 221.984 48.9796C220.442 48.8633 218.909 48.747 217.377 48.6405C215.903 48.466 214.389 48.3012 212.857 48.1268L213.196 41.4011C214.389 41.3429 215.641 41.1394 216.95 40.8002C218.26 40.461 219.511 40.0055 220.704 39.4434C221.955 38.8717 223.09 38.1933 224.108 37.3986C225.195 36.6039 226.077 35.6929 226.756 34.6657C227.377 33.6481 227.949 32.5433 228.463 31.3512C229.026 30.1592 229.511 28.909 229.909 27.6007C230.365 26.2924 230.733 25.0132 231.015 23.763C231.306 22.4644 231.499 21.2142 231.616 20.0222L238.6 20.1869L236.388 41.4786ZM301.608 82.7052C301.608 83.1026 301.579 83.4999 301.521 83.8973C301.521 84.2946 301.521 84.6919 301.521 85.0893L266.825 85.7774C267.563 89.1305 269.241 91.5921 271.85 93.1815C274.469 94.7805 277.417 95.5752 280.715 95.5752C282.306 95.5752 283.926 95.4589 285.575 95.2263C287.224 95.0035 288.843 94.6352 290.434 94.1215C292.025 93.6079 293.538 92.9586 294.954 92.1639C296.38 91.3111 297.651 90.3226 298.795 89.179C298.165 91.563 297.117 93.6661 295.633 95.488C294.159 97.3003 292.393 98.8121 290.347 100.004C288.358 101.196 286.176 102.097 283.79 102.727C281.452 103.289 279.124 103.58 276.797 103.58C273.615 103.58 270.569 103.008 267.679 101.875C264.837 100.741 262.335 99.1804 260.172 97.1937C258.067 95.1973 256.389 92.8132 255.147 90.0318C253.896 87.2504 253.265 84.2171 253.265 80.922C253.265 77.4526 253.974 74.3029 255.399 71.4634C256.815 68.6238 258.697 66.2107 261.025 64.224C263.353 62.1791 266.059 60.6188 269.124 59.5431C272.189 58.4577 275.4 57.9247 278.756 57.9247C282.277 57.9247 285.439 58.574 288.223 59.8823C291.065 61.1906 293.48 62.9738 295.468 65.2513C297.457 67.519 298.96 70.155 299.988 73.169C301.065 76.1249 301.608 79.3036 301.608 82.7052H301.608ZM266.825 78.0244L288.562 78.3635C288.446 76.8323 288.135 75.3593 287.621 73.9347C287.107 72.5197 286.399 71.2696 285.487 70.1841C284.585 69.1084 283.47 68.2556 282.17 67.6353C280.919 66.9473 279.435 66.6081 277.737 66.6081C276.03 66.6081 274.556 66.9182 273.305 67.5481C272.053 68.1684 270.996 69.0212 270.143 70.1066C269.299 71.1242 268.581 72.3453 268.018 73.7699C267.504 75.1267 267.107 76.5513 266.825 78.0244V78.0244ZM349 83.8197C349 86.6593 348.35 88.9852 347.041 90.7974C345.731 92.6194 344.082 94.0634 342.094 95.1488C340.106 96.1664 337.894 96.9029 335.45 97.3584C333.005 97.7558 330.648 97.9593 328.369 97.9593C327.069 97.9593 325.614 97.8721 324.024 97.6976C322.491 97.4747 320.959 97.1646 319.426 96.7672C317.884 96.3699 316.38 95.8853 314.906 95.3136C313.48 94.7515 312.2 94.0634 311.065 93.2687L304.159 101.361L306.807 75.3011C307.767 77.4041 308.989 79.3908 310.473 81.2612C312.006 83.1316 313.742 84.7792 315.672 86.2038C317.603 87.6187 319.678 88.7526 321.89 89.6054C324.111 90.4001 326.41 90.7974 328.796 90.7974C329.426 90.7974 330.134 90.7685 330.93 90.7199C331.783 90.6036 332.579 90.4001 333.316 90.119C334.111 89.838 334.771 89.4406 335.275 88.927C335.789 88.4134 336.041 87.735 336.041 86.8821C336.041 85.913 335.537 85.0408 334.509 84.2461C333.49 83.3933 332.297 82.6761 330.93 82.114C329.562 81.4841 328.204 80.9802 326.836 80.5828C325.479 80.1273 324.45 79.7881 323.771 79.5555C321.841 78.9935 319.707 78.2278 317.379 77.2587C315.1 76.2314 312.966 75.0394 310.978 73.6826C309.048 72.258 307.428 70.6105 306.118 68.7401C304.819 66.8115 304.159 64.5922 304.159 62.0919C304.159 59.7078 304.731 57.5855 305.866 55.7053C307.059 53.8349 308.563 52.2746 310.386 51.0245C312.2 49.7161 314.217 48.747 316.439 48.1268C318.708 47.4484 320.929 47.1092 323.083 47.1092C326.497 47.1092 329.708 47.7294 332.724 48.9796C335.789 50.1716 338.573 51.9064 341.075 54.1741L346.362 43.9498L345.256 70.8722C344.228 68.9339 342.947 67.0054 341.415 65.0768C339.882 63.0901 338.175 61.2972 336.303 59.7078C334.422 58.1185 332.404 56.8392 330.251 55.8798C328.088 54.9107 325.847 54.4261 323.51 54.4261C322.831 54.4261 322.035 54.5134 321.124 54.6878C320.27 54.8041 319.445 55.027 318.65 55.3662C317.913 55.7054 317.263 56.19 316.691 56.8199C316.186 57.382 315.925 58.1185 315.925 59.0295C315.925 60.1052 316.322 61.0453 317.118 61.84C317.971 62.6347 318.97 63.3421 320.105 63.972C321.298 64.5341 322.491 65.0478 323.684 65.5033C324.935 65.9006 325.954 66.2107 326.749 66.4433C328.796 67.1217 331.104 67.9164 333.655 68.8274C336.216 69.7383 338.631 70.8431 340.901 72.1515C343.18 73.4501 345.081 75.0685 346.614 77.0068C348.205 78.8772 349 81.145 349 83.8198V83.8197Z" fill="#00A82D"/>
</svg>
